<svg width="89" height="89" viewBox="0 0 89 89" fill="none" xmlns="http://www.w3.org/2000/svg">
<g clip-path="url(#clip0_65_582)" filter="url(#filter0_d_65_582)">
<path d="M83.4172 9.53398C80.4308 6.14122 77.0517 3.17882 73.2724 0.6968C71.364 -0.556719 68.9879 -0.0688224 67.7323 1.75766C66.4842 3.57414 66.9269 5.93105 68.7828 7.30217C69.2981 7.68248 69.8308 8.03776 70.4111 8.44559C68.6728 10.182 66.9695 11.8333 65.3337 13.5497C64.8209 14.0877 64.5033 14.0902 63.8855 13.7024C55.1764 8.22542 45.7945 6.71669 35.7998 9.08111C31.8855 10.0069 28.2563 11.6332 24.8872 13.83C24.6046 14.0126 24.3945 14.2628 24.0243 13.885C22.2535 12.0785 20.4501 10.3046 18.5968 8.4556C19.2971 7.95269 19.9299 7.54737 20.5102 7.07698C21.8608 5.9836 22.3135 4.22467 21.7082 2.59834C21.1179 1.01706 19.6473 0.0187488 17.944 0.0187488C17.1711 0.0187488 16.4608 0.213907 15.8205 0.636751C11.9962 3.16881 8.55956 6.15123 5.53564 9.59653C4.35758 10.9401 4.18751 12.7691 5.01039 14.2128C5.84578 15.679 7.40401 16.4321 9.12982 16.2044C10.3979 16.0368 11.2933 15.2711 12.0287 14.3104C12.4414 13.7699 12.694 13.8125 13.1467 14.2828C14.6399 15.8366 16.1681 17.3603 17.7189 18.8591C18.1516 19.2769 18.1491 19.5046 17.7489 19.965C9.63006 29.3326 6.83625 40.1088 9.46248 52.2112C12.7565 67.396 26.6656 79.1806 42.1553 79.9462C54.1484 80.5392 64.2157 76.3458 71.9943 67.1883C79.0076 58.9341 81.6138 49.2613 80.0756 38.5551C79.0601 31.4893 76.0487 25.2918 71.269 19.9775C70.8763 19.5421 70.8238 19.3044 71.279 18.8716C72.6796 17.5355 74.0303 16.1418 75.4009 14.7732C76.0862 14.0877 76.7532 14.096 77.4019 14.7983C79.0276 16.5597 81.4863 16.7498 83.1721 15.2436C84.8253 13.7699 84.9654 11.2904 83.4197 9.53398H83.4172ZM72.482 44.047C72.4595 59.5171 59.8886 72.0823 44.4714 72.0448C29.0142 72.0047 16.5033 59.4495 16.5208 43.9895C16.5383 28.4794 29.1317 15.9392 44.624 16.0092C60.0437 16.0768 72.5046 28.617 72.482 44.047V44.047Z" fill="#FBBF2F"/>
<path d="M40.5244 35.9671C40.5244 33.2799 40.4944 30.5927 40.5344 27.9055C40.5619 25.9414 42.0101 24.3226 43.856 24.0724C45.9319 23.7897 47.7578 24.9456 48.3431 26.9047C48.4981 27.4251 48.4856 27.9531 48.4856 28.4835C48.4881 32.7945 48.5031 37.108 48.4706 41.419C48.4656 42.1071 48.6807 42.5674 49.161 43.0428C52.5375 46.3805 55.8866 49.7483 59.2407 53.1085C60.4312 54.302 60.7939 55.7281 60.2612 57.3194C59.7234 58.9282 58.5303 59.8064 56.8671 59.9966C55.654 60.1367 54.5735 59.7389 53.7106 58.8782C49.6812 54.8649 45.6643 50.8417 41.6499 46.8159C40.8371 46.0002 40.5044 44.9944 40.5119 43.8435C40.5294 41.2188 40.5169 38.5942 40.5169 35.9696H40.5194L40.5244 35.9671Z" fill="#FBBF2F"/>
</g>
<defs>
<filter id="filter0_d_65_582" x="0.5" y="0" width="88.0001" height="88.0012" filterUnits="userSpaceOnUse" color-interpolation-filters="sRGB">
<feFlood flood-opacity="0" result="BackgroundImageFix"/>
<feColorMatrix in="SourceAlpha" type="matrix" values="0 0 0 0 0 0 0 0 0 0 0 0 0 0 0 0 0 0 127 0" result="hardAlpha"/>
<feOffset dy="4"/>
<feGaussianBlur stdDeviation="2"/>
<feComposite in2="hardAlpha" operator="out"/>
<feColorMatrix type="matrix" values="0 0 0 0 0 0 0 0 0 0 0 0 0 0 0 0 0 0 0.25 0"/>
<feBlend mode="normal" in2="BackgroundImageFix" result="effect1_dropShadow_65_582"/>
<feBlend mode="normal" in="SourceGraphic" in2="effect1_dropShadow_65_582" result="shape"/>
</filter>
<clipPath id="clip0_65_582">
<rect width="80" height="80.0012" fill="white" transform="translate(4.5)"/>
</clipPath>
</defs>
</svg>
