<svg width="81" height="80" viewBox="0 0 81 80" fill="none" xmlns="http://www.w3.org/2000/svg">
<g clip-path="url(#clip0_65_593)">
<path d="M51.9767 59.9673C56.6707 59.9673 61.3646 59.9577 66.061 59.972C68.2199 59.9768 69.6243 61.9358 68.8769 63.8615C68.4247 65.0254 67.363 65.6776 65.8944 65.6776C56.9206 65.6776 47.9492 65.6776 38.9754 65.6776C38.5588 65.6776 38.1423 65.6848 37.7281 65.6776C36.069 65.6419 34.8122 64.4113 34.8098 62.8284C34.8075 61.236 36.0548 59.9816 37.7162 59.9744C42.4697 59.9577 47.2232 59.9696 51.9767 59.9696V59.9673Z" fill="#FBBF2F"/>
<path d="M54.7664 37.1234C51.0841 37.1234 47.3993 37.1258 43.717 37.1234C41.8318 37.1234 40.5298 35.9594 40.5202 34.2837C40.5131 32.5984 41.8056 31.4154 43.6813 31.4154C51.1079 31.413 58.5345 31.4106 65.961 31.4154C67.7701 31.4154 69.0602 32.6056 69.0697 34.2503C69.0792 35.8999 67.7867 37.1162 65.9944 37.121C62.2525 37.1281 58.5083 37.121 54.7664 37.121V37.1234Z" fill="#FBBF2F"/>
<path d="M54.8116 45.6901C58.494 45.6901 62.1787 45.6901 65.8611 45.6901C67.7534 45.6901 69.0531 46.8422 69.0697 48.518C69.084 50.2294 67.7748 51.3981 65.8254 51.4005C58.4583 51.4005 51.0912 51.4005 43.7241 51.4005C41.8342 51.4005 40.5321 50.2437 40.5178 48.5703C40.5036 46.8565 41.8104 45.6925 43.7598 45.6925C47.4422 45.6901 51.1269 45.6925 54.8093 45.6925L54.8116 45.6901Z" fill="#FBBF2F"/>
<path d="M41.9151 22.8486C39.6276 22.8486 37.3425 22.8534 35.055 22.8486C33.2531 22.8439 31.9583 21.6513 31.9511 20.0065C31.944 18.3522 33.227 17.143 35.0241 17.1406C39.6276 17.1335 44.2288 17.1359 48.8323 17.1406C50.6366 17.1406 51.9291 18.3332 51.9386 19.978C51.9458 21.6275 50.6556 22.8391 48.8632 22.8463C46.5472 22.8534 44.2312 22.8463 41.9151 22.8463V22.8486Z" fill="#FBBF2F"/>
<path d="M80.5 20.3255C80.5 19.3115 80.1929 18.4879 79.4717 17.769C73.8708 12.1824 68.2795 6.58633 62.6881 0.990207C62.074 0.373706 61.3647 0.00475704 60.4792 0.00475704C48.9989 0.00713735 37.521 -0.0190461 26.0408 0.0237996C21.9633 0.0380814 18.4833 3.08012 17.8358 7.09095C17.4597 9.42128 17.7216 11.7802 17.6859 14.1248C17.6597 15.8529 18.9117 17.1359 20.528 17.1383C22.1466 17.1383 23.3724 15.8624 23.3843 14.1343C23.3962 12.3205 23.3772 10.5067 23.3915 8.69291C23.4058 6.92433 24.5935 5.72465 26.3621 5.72465C36.5618 5.71751 46.7638 5.72703 56.9635 5.70323C57.6014 5.70323 57.6656 5.93412 57.6609 6.46255C57.6371 8.99045 57.6442 11.5183 57.6514 14.0462C57.6704 19.1068 61.3789 22.8296 66.4228 22.8486C68.9198 22.8582 71.4191 22.8724 73.916 22.8344C74.5825 22.8248 74.7991 22.9581 74.7991 23.6841C74.7753 39.4466 74.7801 55.2066 74.7801 70.9691C74.7801 73.1447 73.6709 74.242 71.4762 74.2444C63.7735 74.2444 56.0708 74.2444 48.3705 74.2444C44.8619 74.2444 41.351 74.2396 37.8424 74.2444C36.457 74.2468 35.4216 74.9347 34.9884 76.1082C34.2624 78.0767 35.7049 79.95 37.9638 79.95C49.1155 79.9548 60.2673 79.9524 71.4215 79.95C76.8391 79.95 80.4905 76.3105 80.4929 70.9096C80.4952 62.5832 80.4929 54.2545 80.4929 45.9282C80.4929 37.3924 80.4857 28.8589 80.5024 20.3231L80.5 20.3255ZM65.9563 17.1121C64.5471 17.0478 63.4093 15.8315 63.3713 14.4057C63.3308 12.9227 63.3617 11.4374 63.3617 10.1092C65.6683 12.4181 68.0438 14.7937 70.3765 17.1287C69.0245 17.1287 67.4868 17.1811 65.9563 17.1121Z" fill="#FBBF2F"/>
<path d="M34.6528 37.7804C33.5578 28.1877 24.1127 21.1967 14.6486 23.0938C7.948 24.4363 3.33257 28.4091 1.33311 34.9478C-0.666356 41.4889 0.973681 47.3135 5.75335 52.217C6.11754 52.5907 6.2675 52.9382 6.26512 53.4524C6.24608 57.3465 6.25322 61.2407 6.25322 65.1349C6.25322 68.9696 6.25322 72.8043 6.25322 76.639C6.25322 78.2148 6.8483 79.2716 8.04322 79.7287C9.41428 80.2547 10.5092 79.7834 11.4899 78.7765C13.337 76.8818 15.2413 75.0442 17.0718 73.1328C17.5788 72.6044 17.8358 72.6805 18.2976 73.1566C20.1376 75.0561 22.0347 76.9032 23.8818 78.798C24.834 79.7739 25.898 80.2666 27.2428 79.7501C28.5092 79.2645 29.0947 78.2433 29.0947 76.6152C29.0947 68.9149 29.0995 61.2169 29.0852 53.5166C29.0852 52.9787 29.2209 52.5978 29.6136 52.2003C33.5792 48.199 35.2907 43.3955 34.6504 37.7804H34.6528ZM23.3582 70.1074C22.3846 69.1529 21.4015 68.3103 20.5613 67.3463C18.6166 65.1135 16.7552 65.0969 14.8271 67.3153C13.9797 68.2889 12.9895 69.1386 11.966 70.1407V68.7483C11.966 64.766 11.966 60.7861 11.966 56.8038C11.966 56.4492 11.8684 56.0659 12.492 56.2706C16.0197 57.4322 19.5473 57.3799 23.0678 56.223C23.1463 56.1969 23.2415 56.2207 23.3582 56.2207V70.1074ZM17.674 51.4005C11.3423 51.3791 6.24132 46.2567 6.25798 39.9322C6.27226 33.6315 11.4304 28.5376 17.7692 28.5614C24.0556 28.5852 29.128 33.7576 29.0995 40.1178C29.0709 46.3019 23.889 51.4219 17.6763 51.4005H17.674Z" fill="#FBBF2F"/>
</g>
<defs>
<clipPath id="clip0_65_593">
<rect width="80" height="79.9595" fill="white" transform="translate(0.5)"/>
</clipPath>
</defs>
</svg>
