<svg width="89" height="83" viewBox="0 0 89 83" fill="none" xmlns="http://www.w3.org/2000/svg">
<g clip-path="url(#clip0_65_585)" filter="url(#filter0_d_65_585)">
<path d="M84.5 37.3143C84.5 36.0484 83.9535 35.1353 82.8416 34.548C82.3014 34.2637 81.7131 34.1683 81.1061 34.16C80.4302 34.1496 79.7544 34.16 79.0764 34.1517C78.6258 34.1475 78.4047 33.9421 78.4131 33.4897C78.4172 33.2572 78.411 33.0248 78.411 32.7903C78.411 29.2459 78.4318 25.6993 78.4005 22.1549C78.3818 20.0091 77.0321 18.6914 74.8752 18.6333C74.433 18.6208 73.9908 18.6291 73.5485 18.6291C72.6279 18.6291 72.1669 18.1781 72.1655 17.2761C72.1613 14.7402 72.1968 12.2043 72.153 9.66838C72.1175 7.60355 70.7825 6.2941 68.7174 6.21317C68.4045 6.20071 68.0936 6.20694 67.7807 6.20694C60.8615 6.20694 53.9423 6.19864 47.023 6.21732C46.2366 6.21939 45.6379 5.99734 45.0893 5.43081C43.7355 4.0342 42.3483 2.66664 40.9569 1.30738C39.1713 -0.435793 37.2585 -0.435793 35.4791 1.30738C34.1065 2.65004 32.7319 3.99062 31.4031 5.37686C30.8148 5.99112 30.1765 6.22354 29.3338 6.21939C24.1835 6.19241 19.0331 6.21109 13.8828 6.20279C12.4497 6.20279 11.0771 6.48917 9.81094 7.12626C6.81337 8.63078 4.88382 10.9405 4.5 14.3583V61.1003C4.69191 62.1088 4.70234 63.1444 5.0361 64.1342C7.22848 70.6421 13.2987 74.9979 20.2117 74.9979C38.1346 74.9979 56.0575 74.9979 73.9803 74.9979C74.3183 74.9979 74.6562 75.0042 74.9941 74.9896C77.0196 74.9004 78.3192 73.6013 78.4026 71.5801C78.4151 71.2688 78.4089 70.9596 78.4089 70.6483C78.4089 67.2844 78.4068 63.9205 78.4089 60.5566C78.4089 59.521 78.4631 59.4795 79.5207 59.4692C80.1716 59.4629 80.8224 59.5003 81.4711 59.4484C83.2943 59.299 84.4791 58.1161 84.4854 56.3356C84.5063 49.9959 84.4875 43.654 84.4979 37.3143H84.5ZM53.84 12.6505C57.5552 12.6505 61.2724 12.665 64.9876 12.6359C65.5738 12.6318 65.7198 12.7729 65.7052 13.3519C65.6614 15.0058 65.676 16.6598 65.6989 18.3158C65.7052 18.7495 65.5925 18.8781 65.1461 18.874C62.9892 18.8512 60.8323 18.8615 58.6754 18.8657C58.4397 18.8657 58.2311 18.8615 58.0392 18.6706C56.0679 16.7033 54.0862 14.7423 51.9793 12.6525H53.84V12.6505ZM31.2633 14.6447C33.4369 12.4886 35.6084 10.3324 37.7695 8.16593C38.0678 7.8671 38.2368 7.72807 38.6185 8.11198C42.1126 11.6232 45.6316 15.1096 49.1424 18.6042C49.1904 18.6519 49.2237 18.7142 49.303 18.8242H27.0267C28.5056 17.3653 29.8886 16.0102 31.2633 14.6468V14.6447ZM13.6679 12.6691C17.1933 12.6214 20.7207 12.6546 24.4275 12.6546C22.3436 14.7277 20.3786 16.6743 18.424 18.6333C18.2384 18.818 18.0485 18.8678 17.8045 18.8657C16.4548 18.8574 15.1031 18.8885 13.7535 18.8532C12.0868 18.8097 10.7642 17.438 10.7455 15.7985C10.7267 14.1508 12.0179 12.692 13.67 12.6691H13.6679ZM71.9402 68.0854C71.9402 68.4569 71.8401 68.6104 71.4625 68.5565C71.3353 68.5378 71.2039 68.5544 71.0724 68.5544C54.2447 68.5544 37.4191 68.5544 20.5914 68.5544C14.761 68.5544 10.7434 64.5617 10.7413 58.7698C10.7413 47.6695 10.7413 36.5713 10.7413 25.4711V24.5435C13.0463 25.3445 15.3743 25.0623 17.6751 25.0643C35.4645 25.083 53.2539 25.0809 71.0432 25.054C71.8151 25.054 71.9632 25.2553 71.9486 25.9795C71.8985 28.5652 71.911 31.1551 71.9444 33.7408C71.9527 34.3031 71.7817 34.3986 71.2539 34.4048C68.8112 34.438 66.3623 34.2201 63.9279 34.5293C58.1017 35.266 53.4312 40.3524 53.2059 46.1775C52.9702 52.2724 57.0629 57.6554 62.9037 58.9213C63.8716 59.1309 64.8478 59.245 65.8429 59.2388C67.689 59.2284 69.5351 59.2388 71.3833 59.2326C71.7233 59.2326 71.9486 59.2222 71.9444 59.7037C71.9173 62.4969 71.9235 65.2922 71.9402 68.0875V68.0854ZM77.514 53.0381C75.4864 53.0028 73.4588 53.0236 71.4312 53.0236C69.5601 53.0236 67.6869 53.0319 65.8157 53.0236C62.2216 53.0028 59.4305 50.2573 59.4472 46.7731C59.4639 43.3303 62.2549 40.618 65.8178 40.6055C69.7186 40.5931 73.6174 40.6159 77.5182 40.5889C78.0731 40.5848 78.1961 40.7301 78.1919 41.2675C78.1669 44.9656 78.1669 48.6656 78.1919 52.3637C78.1961 52.9053 78.0668 53.0506 77.5161 53.0402L77.514 53.0381Z" fill="#FBBF2F"/>
<path d="M23.2302 37.501C23.2302 38.5345 23.2448 39.57 23.226 40.6035C23.1947 42.357 21.8221 43.7101 20.1012 43.7059C18.3844 43.7038 17.0076 42.3446 16.9909 40.591C16.9722 38.522 16.9701 36.4531 16.9909 34.3862C17.0097 32.6347 18.3927 31.2816 20.1137 31.2837C21.8346 31.2858 23.1968 32.6368 23.226 34.3965C23.2448 35.43 23.2302 36.4655 23.2302 37.499V37.501Z" fill="#FBBF2F"/>
<path d="M23.2301 56.209C23.2301 57.2176 23.2447 58.2261 23.226 59.2347C23.1947 60.9903 21.8263 62.3433 20.1053 62.3433C18.3885 62.3433 17.0076 60.9841 16.9909 59.2326C16.9701 57.1636 16.9701 55.0946 16.9909 53.0277C17.0076 51.2742 18.3885 49.9211 20.1095 49.9211C21.8325 49.9211 23.1968 51.2721 23.226 53.0298C23.2447 54.0902 23.2301 55.1507 23.2301 56.209Z" fill="#FBBF2F"/>
</g>
<defs>
<filter id="filter0_d_65_585" x="0.5" y="0" width="88" height="83" filterUnits="userSpaceOnUse" color-interpolation-filters="sRGB">
<feFlood flood-opacity="0" result="BackgroundImageFix"/>
<feColorMatrix in="SourceAlpha" type="matrix" values="0 0 0 0 0 0 0 0 0 0 0 0 0 0 0 0 0 0 127 0" result="hardAlpha"/>
<feOffset dy="4"/>
<feGaussianBlur stdDeviation="2"/>
<feComposite in2="hardAlpha" operator="out"/>
<feColorMatrix type="matrix" values="0 0 0 0 0 0 0 0 0 0 0 0 0 0 0 0 0 0 0.25 0"/>
<feBlend mode="normal" in2="BackgroundImageFix" result="effect1_dropShadow_65_585"/>
<feBlend mode="normal" in="SourceGraphic" in2="effect1_dropShadow_65_585" result="shape"/>
</filter>
<clipPath id="clip0_65_585">
<rect width="80" height="75" fill="white" transform="translate(4.5)"/>
</clipPath>
</defs>
</svg>
