<svg width="89" height="96" viewBox="0 0 89 96" fill="none" xmlns="http://www.w3.org/2000/svg">
<g clip-path="url(#clip0_65_589)" filter="url(#filter0_d_65_589)">
<path d="M65.107 1.17574C63.9975 0.897226 62.8606 0.721442 61.7352 0.5H57.4638C56.884 0.831022 56.2196 0.7671 55.5987 0.897226C44.2686 3.2646 36.9382 13.6336 38.4769 25.1257C40.0475 36.8531 51.4073 45.2519 63.1117 43.3434C73.3757 41.6677 80.923 33.1228 81.3225 22.7241C81.7061 12.7501 74.8436 3.62074 65.1047 1.17574H65.107ZM59.6577 37.5904C51.0991 37.5288 44.1978 30.5385 44.2481 21.9753C44.2983 13.33 51.3114 6.41502 59.9636 6.47894C68.4675 6.54286 75.4326 13.6381 75.3504 22.1534C75.2682 30.7645 68.2666 37.6521 59.6577 37.5904Z" fill="#FBBF2F"/>
<path d="M79.8249 48.206C75.0925 46.5851 70.4376 46.8408 65.8855 48.9228C63.3332 50.0916 60.7718 51.2422 58.224 52.4248C57.7195 52.6599 57.5529 52.6508 57.3931 52.0298C56.5872 48.9023 53.9801 46.4527 50.3138 46.5463C47.0446 46.6308 43.7687 46.4824 40.4972 46.4573C39.9471 46.4527 39.4266 46.3454 38.9038 46.2175C35.7922 45.4619 32.6623 45.3044 29.5256 46.0304C25.8296 46.8864 22.791 48.8292 20.3072 51.676C20.1131 51.8997 19.999 52.2924 19.5242 51.9271C18.3553 51.0299 17.1271 51.0938 15.8624 51.797C12.664 53.5776 9.44511 55.3264 6.24219 57.1002C4.62132 57.9974 4.11223 59.4082 4.79482 61.1409C8.0434 69.3708 11.2988 77.5984 14.5634 85.8237C15.3624 87.8396 17.1728 88.5084 19.0584 87.4857C22.3504 85.6982 25.6287 83.8833 28.9115 82.0798C29.7516 81.6186 30.352 80.9611 30.5141 79.9932C30.5917 79.5298 30.8154 79.4316 31.2583 79.4362C33.8768 79.4567 36.4953 79.4476 39.1138 79.4476C41.1342 79.4476 43.1568 79.4065 45.1772 79.4567C48.161 79.532 50.8822 78.7536 53.4596 77.2605C62.4497 72.0532 71.4512 66.8619 80.4801 61.7208C82.1398 60.7757 83.2036 59.4219 83.8794 57.7257C85.5231 53.6028 83.8086 49.5666 79.8249 48.2037V48.206ZM23.4119 78.2764C22.097 79.0047 20.7706 79.7124 19.4694 80.4589C19.0516 80.6986 18.9101 80.5982 18.7457 80.1827C16.3212 74.0143 13.8854 67.8481 11.4335 61.6888C11.2669 61.2688 11.365 61.0976 11.7349 60.9012C13.0612 60.1981 14.3785 59.4698 15.6866 58.7325C15.9971 58.5567 16.1546 58.527 16.3075 58.9197C18.7662 65.168 21.2363 71.4095 23.7064 77.6532C23.7384 77.7331 23.7727 77.8085 23.8023 77.8792C23.8046 78.1532 23.574 78.1874 23.4119 78.2787V78.2764ZM78.4689 55.3538C78.2474 55.9199 77.9004 56.3765 77.348 56.6938C68.2277 61.9034 59.1167 67.1244 50.001 72.3409C48.6655 73.1057 47.2364 73.4869 45.6886 73.4778C43.0701 73.4595 40.4516 73.4732 37.8331 73.4732C34.9589 73.4732 32.0824 73.4595 29.2083 73.4869C28.6718 73.4915 28.4298 73.3385 28.2289 72.8249C26.4916 68.3595 24.7246 63.9032 22.944 59.4561C22.7545 58.9859 22.7796 58.6229 23.017 58.1846C26.0373 52.612 31.3519 50.4318 37.8902 52.1303C38.6709 52.3335 39.4425 52.4316 40.2438 52.4385C43.602 52.4682 46.9602 52.5161 50.316 52.5618C51.2817 52.5755 51.6949 53.1028 51.6789 54.2694C51.6652 55.4108 51.2726 55.8788 50.3092 55.8788C46.951 55.8811 43.5929 55.8902 40.2324 55.8697C39.6982 55.8651 39.4928 55.9747 39.5087 56.5591C39.5521 58.1229 39.5407 59.689 39.5133 61.2551C39.5042 61.7322 39.6343 61.8737 40.1228 61.8692C43.7664 61.8463 47.4099 61.8486 51.0534 61.8509C51.9255 61.8509 52.761 61.6592 53.519 61.2574C57.9592 58.906 62.6529 57.0979 67.1799 54.9383C68.9081 54.1141 70.6385 53.379 72.5721 53.1964C74.3619 53.0275 76.0901 53.2649 77.7794 53.8288C78.5922 54.1004 78.7816 54.557 78.4689 55.3538Z" fill="#FBBF2F"/>
<path d="M54.7335 25.4362C55.9959 26.3037 57.2447 27.0183 58.7194 27.2123C58.861 27.2306 59.0002 27.258 59.1418 27.2648C60.1668 27.3242 61.0023 26.8973 61.1941 26.2261C61.3927 25.5275 61.032 24.9089 60.0093 24.3884C59.0504 23.8998 58.0391 23.5163 57.0826 23.0255C54.3568 21.6261 53.2131 19.3523 53.8728 16.6699C54.3203 14.8527 55.4823 13.629 57.1944 12.9441C57.6716 12.7547 57.8177 12.5195 57.8154 12.0196C57.8108 11.2662 57.4707 10.2572 57.9638 9.82569C58.3884 9.45586 59.3723 9.71839 60.1074 9.71611C62.0548 9.71155 62.0867 9.71611 62.0479 11.6931C62.0365 12.2593 62.1963 12.4898 62.7328 12.5926C63.6893 12.7775 64.5454 13.2341 65.3969 13.6884C65.7394 13.871 65.8992 14.0331 65.7074 14.476C65.2577 15.5147 64.8627 16.5808 64.4952 17.6538C64.3331 18.1264 64.171 18.1149 63.7852 17.8866C62.678 17.2315 61.516 16.7018 60.1896 16.7087C59.5527 16.7109 58.8724 16.7338 58.6669 17.5008C58.466 18.2496 59.0436 18.5738 59.5846 18.8432C60.6736 19.3865 61.8059 19.8522 62.8743 20.4344C66.1024 22.1968 67.1502 25.8563 65.2942 28.7693C64.6002 29.8582 63.6322 30.6321 62.4292 31.0887C62.0274 31.2417 61.8881 31.4426 61.8858 31.8832C61.8813 32.6982 62.2625 33.7871 61.7306 34.2483C61.274 34.6455 60.2102 34.3578 59.4157 34.3601C57.6145 34.3647 57.5757 34.3601 57.6328 32.5658C57.6556 31.817 57.5026 31.4791 56.6854 31.3467C55.5622 31.1663 54.5371 30.6298 53.6034 29.961C53.4139 29.8263 53.156 29.7509 53.2998 29.3742C53.7975 28.0821 54.2495 26.7717 54.7312 25.4317L54.7335 25.4362Z" fill="#FBBF2F"/>
</g>
<defs>
<filter id="filter0_d_65_589" x="0.49968" y="0.5" width="88.0006" height="96" filterUnits="userSpaceOnUse" color-interpolation-filters="sRGB">
<feFlood flood-opacity="0" result="BackgroundImageFix"/>
<feColorMatrix in="SourceAlpha" type="matrix" values="0 0 0 0 0 0 0 0 0 0 0 0 0 0 0 0 0 0 127 0" result="hardAlpha"/>
<feOffset dy="4"/>
<feGaussianBlur stdDeviation="2"/>
<feComposite in2="hardAlpha" operator="out"/>
<feColorMatrix type="matrix" values="0 0 0 0 0 0 0 0 0 0 0 0 0 0 0 0 0 0 0.25 0"/>
<feBlend mode="normal" in2="BackgroundImageFix" result="effect1_dropShadow_65_589"/>
<feBlend mode="normal" in="SourceGraphic" in2="effect1_dropShadow_65_589" result="shape"/>
</filter>
<clipPath id="clip0_65_589">
<rect width="80.0006" height="88" fill="white" transform="translate(4.49968 0.5)"/>
</clipPath>
</defs>
</svg>
