<svg width="127" height="79" viewBox="0 0 127 79" fill="none" xmlns="http://www.w3.org/2000/svg">
<path d="M38.8215 59.4325C37.0081 61.3017 36.1001 64.0319 36.1001 67.6203C36.1001 70.5768 36.6933 72.9147 37.8768 74.6339C39.0603 76.353 40.6611 77.2114 42.6763 77.2114C43.8598 77.2114 44.9175 76.8954 45.8518 76.2637C46.8095 75.6317 47.6152 74.7208 48.2711 73.5334H48.4234L48.3106 76.6427H53.3754V57.5001C50.8062 56.8945 48.5626 56.589 46.6495 56.589C43.2433 56.589 40.6375 57.537 38.8215 59.4325ZM48.2319 67.9626C47.5759 69.3525 46.8724 70.4638 46.1167 71.2983C45.3609 72.1328 44.5922 72.5488 43.8128 72.5488C43.007 72.5488 42.3772 72.0931 41.9232 71.1851C41.4693 70.2503 41.2436 68.9867 41.2436 67.3939C41.2436 65.372 41.6214 63.8423 42.3772 62.8076C43.1594 61.7704 44.3033 61.2543 45.8149 61.2543C46.6204 61.2543 47.4264 61.3675 48.2346 61.5966V67.9626H48.2319Z" fill="white"/>
<path d="M78.5427 48.9703H77.3127C75.9727 48.9703 74.8863 50.0736 74.8863 51.4345C74.8863 52.7955 75.9727 53.8988 77.3127 53.8988H78.5427C79.8828 53.8988 80.9692 52.7955 80.9692 51.4345C80.9692 50.0736 79.8828 48.9703 78.5427 48.9703Z" fill="white"/>
<path d="M28.823 72.5883C27.0334 72.5883 25.6478 72.1091 24.6664 71.1482C23.7084 70.1873 23.2307 68.8235 23.2307 67.0542C23.2307 65.3114 23.6979 63.9083 24.6296 62.8471C25.5873 61.7861 26.8468 61.2543 28.4085 61.2543C29.012 61.2543 29.6548 61.3437 30.3344 61.5202C31.0405 61.6729 31.6833 61.8863 32.2607 62.1653L33.2816 57.6528C32.7279 57.3737 31.9327 57.1339 30.9013 56.9314C29.8937 56.7049 28.9227 56.589 27.9911 56.589C26.002 56.589 24.2491 57.0446 22.7376 57.9529C21.2258 58.8376 20.0557 60.1013 19.2238 61.7441C18.392 63.3606 17.9772 65.2326 17.9772 67.3544C17.9772 70.4872 18.8589 72.9147 20.6223 74.6339C22.4122 76.353 24.9184 77.2114 28.1434 77.2114C30.0326 77.2114 31.7964 76.8822 33.4337 76.2268L32.6411 71.9039C31.2793 72.3593 30.009 72.5883 28.823 72.5883Z" fill="white"/>
<path d="M95.7845 56.589C94.3727 56.589 93.1394 56.905 92.0817 57.537C91.0242 58.1687 90.0925 59.1536 89.2843 60.4934V57.121H84.07V76.6453H89.397V65.3087C89.8747 64.1451 90.5677 63.1868 91.4756 62.4285C92.3834 61.6703 93.3386 61.2913 94.3466 61.2913C95.2021 61.2913 95.8842 61.5808 96.3881 62.1627C96.8919 62.7181 97.1439 63.5028 97.1439 64.5138V76.6453H102.471V63.679C102.471 61.4546 101.878 59.7248 100.694 58.4847C99.5137 57.221 97.8759 56.589 95.7845 56.589Z" fill="white"/>
<path d="M125.003 61.4409C124.197 59.8978 123.037 58.7107 121.526 57.8759C120.04 57.0177 118.314 56.5859 116.348 56.5859C114.383 56.5859 112.645 57.0151 111.134 57.8759C109.648 58.7343 108.488 59.948 107.657 61.5144C106.851 63.0573 106.447 64.8501 106.447 66.8983C106.447 68.9467 106.861 70.7529 107.693 72.3194C108.525 73.8619 109.683 75.0626 111.171 75.9208C112.682 76.7791 114.419 77.2109 116.385 77.2109C118.324 77.2109 120.038 76.7817 121.523 75.9208C123.035 75.0361 124.194 73.8092 125 72.2428C125.832 70.65 126.247 68.8309 126.247 66.7826C126.252 64.766 125.834 62.9835 125.003 61.4409ZM119.599 71.032C118.794 72.069 117.71 72.5852 116.351 72.5852C114.991 72.5852 113.895 72.0666 113.062 71.032C112.257 69.9708 111.853 68.5809 111.853 66.8614C111.853 65.1423 112.257 63.7786 113.062 62.7678C113.895 61.7305 114.989 61.2142 116.351 61.2142C117.71 61.2142 118.794 61.733 119.599 62.7678C120.431 63.7786 120.846 65.1423 120.846 66.8614C120.846 68.5809 120.431 69.9708 119.599 71.032Z" fill="white"/>
<path d="M69.1915 66.1432C68.4857 65.7378 67.6038 65.3219 66.5464 64.8929C66.4204 64.8427 65.9795 64.6768 65.2237 64.4003C64.266 64.0714 63.5864 63.7819 63.1822 63.5289C62.7778 63.2763 62.5785 62.8972 62.5785 62.3916C62.5785 61.8599 62.8174 61.4572 63.2974 61.1781C63.8013 60.899 64.4681 60.762 65.2998 60.762C66.1054 60.762 66.9634 60.9017 67.8688 61.1781C68.8003 61.4307 69.6325 61.7732 70.362 62.2022L71.0808 57.6897C69.0156 56.9579 67.0503 56.589 65.1869 56.589C62.8199 56.589 60.8911 57.1446 59.4058 58.2583C57.9442 59.3456 57.2148 60.8753 57.2148 62.8445C57.2148 64.0821 57.4929 65.0825 58.0466 65.8404C58.6002 66.5988 59.2171 67.1674 59.8992 67.5466C60.579 67.8994 61.4607 68.2786 62.5443 68.6839L63.5652 69.0629C64.6989 69.4684 65.4679 69.8081 65.8693 70.0872C66.2735 70.3398 66.4729 70.7058 66.4729 71.1877C66.4729 71.7931 66.1841 72.2618 65.6042 72.5908C65.0243 72.8938 64.3077 73.0465 63.4497 73.0465C62.5418 73.0465 61.5734 72.8831 60.5395 72.5539C59.5055 72.2249 58.5608 71.7957 57.7053 71.264L57.2148 75.8134C58.0203 76.2426 58.9913 76.5847 60.125 76.8377C61.2848 77.0903 62.4815 77.2165 63.7148 77.2165C66.158 77.2165 68.1236 76.698 69.6089 75.6633C71.0941 74.626 71.8395 73.0727 71.8395 71.0007C71.8395 69.7633 71.5743 68.7522 71.0468 67.9679C70.5142 67.1542 69.8973 66.5462 69.1915 66.1432Z" fill="white"/>
<path d="M80.2651 57.1213H74.9303V61.7074H74.9356V72.0569V76.6456H80.2651V72.0569V57.1213Z" fill="white"/>
<path d="M86.2965 18.9726C84.5687 18.9726 83.0385 19.3408 81.7091 20.0739C80.3797 20.7754 79.1991 21.8903 78.1709 23.4255V12.4462C78.1709 10.4979 76.5958 8.9209 74.657 8.9209C72.718 8.9209 71.143 10.5014 71.143 12.4462V45.4326H78.1709V29.827C78.8702 28.4271 79.7668 27.3089 80.8642 26.475C81.9931 25.607 83.1736 25.1762 84.4025 25.1762C85.5312 25.1762 86.4314 25.5581 87.0961 26.3259C87.761 27.0587 88.0932 28.0939 88.0932 29.4275V45.4326H95.1211V28.3262C95.1211 25.3916 94.3389 23.1096 92.7773 21.4735C91.2159 19.8063 89.0557 18.9726 86.2965 18.9726Z" fill="#EBBC44"/>
<path d="M26.1958 18.9729C25.0117 18.9729 23.9041 19.157 22.8759 19.5251C23.5577 18.3096 23.4815 17.257 23.6823 15.9337C23.9178 14.3915 22.2317 12.9986 21.3593 12.4986C21.5152 12.6653 21.8754 13.2071 22.0728 14.0234C22.2698 14.8397 21.7711 15.2635 21.4944 15.3745C21.4217 15.0134 20.8712 13.5996 19.2615 10.8385C17.2499 7.38587 13.6181 4.52733 9.9207 2.71078C6.96406 1.25198 2.41144 0.467003 0.503845 0.255127C1.06469 0.598987 2.60186 1.63056 4.25674 3.00948C6.32358 4.73573 7.77073 7.56649 8.69164 10.55C9.42907 12.9398 9.05862 15.7844 8.78168 16.9063L14.0786 21.0119C13.625 21.0707 11.8387 21.0119 11.0458 20.7687C9.89298 20.4179 8.85088 19.5007 8.44929 19.3793C8.7332 19.9594 8.76779 22.6269 10.6997 24.0684C12.6314 25.5097 14.4524 26.1524 15.8373 27.0205C16.5297 27.7154 17.4508 28.9309 17.4508 32.057C17.4508 34.3738 16.9313 39.6983 16.7962 41.2613C18.4891 36.2249 18.7041 32.1436 18.8355 29.2782C19.0017 25.6972 17.9595 22.224 15.8373 16.8958C14.141 12.634 10.672 6.86141 9.1521 4.50648C10.2565 5.76731 12.2576 8.19864 15.0308 12.4951C17.804 16.7952 18.3196 18.6848 19.3584 21.8106C19.3688 21.7861 19.3824 21.783 19.3999 21.7932L20.7189 26.958C20.9579 26.7045 21.2069 26.4753 21.4632 26.2739C22.3944 25.5062 23.3915 25.1242 24.4543 25.1242C25.7494 25.1242 26.7465 25.7251 27.4458 26.9235C28.1762 28.1249 28.5432 29.8063 28.5432 31.9735C28.5432 34.6065 27.996 36.607 26.8986 37.9756C25.8358 39.3441 24.2745 40.0248 22.2112 40.0248C21.9997 40.0248 21.7956 40.0178 21.5879 40.0073C21.2658 39.9172 20.9233 39.8685 20.57 39.8685C18.6588 39.8685 17.1082 41.2683 17.1082 42.9945C17.1082 44.6825 18.5896 46.0512 20.4384 46.1134C20.4072 46.1621 20.5769 46.176 21.4598 46.176C26.0126 46.176 29.5021 44.9258 31.9289 42.4249C34.3562 39.9241 35.5676 36.305 35.5676 31.5706C35.5676 27.6042 34.7367 24.5198 33.0751 22.3178C31.4133 20.0913 29.1211 18.9729 26.1958 18.9729Z" fill="#EBBC44"/>
<path d="M64.8064 25.7519C63.7437 23.7163 62.2135 22.1501 60.2194 21.0488C58.26 19.9165 55.9818 19.3469 53.3884 19.3469C50.7956 19.3469 48.5037 19.9131 46.5096 21.0488C44.5499 22.1811 43.0197 23.7824 41.9222 25.8489C41.8633 25.9639 41.8116 26.0818 41.756 26.1998L41.7735 26.2103C41.4584 26.7384 41.275 27.3564 41.275 28.0164C41.275 29.965 42.8501 31.5452 44.7924 31.5452C46.378 31.5452 47.7212 30.4895 48.1573 29.0412C48.3964 28.4751 48.6907 27.9573 49.0542 27.5025C50.1517 26.134 51.5952 25.453 53.3922 25.453C55.1855 25.453 56.6153 26.1374 57.6782 27.5025C58.1385 28.0618 58.4953 28.7041 58.7618 29.4268H58.7862C59.3296 30.6736 60.5654 31.5452 62.0092 31.5452C63.9516 31.5452 65.5266 29.965 65.5266 28.0164C65.5266 27.3843 65.3604 26.7937 65.0696 26.2833C64.9867 26.1061 64.9 25.9255 64.8064 25.7519Z" fill="#DFBC8E"/>
<path d="M123.544 25.7519C122.481 23.7163 120.951 22.1501 118.957 21.0488C116.997 19.9165 114.719 19.3469 112.126 19.3469C109.533 19.3469 107.241 19.9131 105.247 21.0488C103.287 22.1811 101.757 23.7824 100.66 25.8489C100.601 25.9639 100.549 26.0818 100.494 26.1998L100.511 26.2103C100.196 26.7384 100.013 27.3564 100.013 28.0164C100.013 29.965 101.588 31.5452 103.53 31.5452C105.116 31.5452 106.459 30.4895 106.895 29.0412C107.134 28.4751 107.428 27.9573 107.792 27.5025C108.889 26.134 110.333 25.453 112.13 25.453C113.923 25.453 115.353 26.1374 116.416 27.5025C116.876 28.0618 117.233 28.7041 117.499 29.4268H117.524C118.067 30.6736 119.303 31.5452 120.747 31.5452C122.689 31.5452 124.264 29.965 124.264 28.0164C124.264 27.3843 124.098 26.7937 123.807 26.2833C123.724 26.1061 123.638 25.9255 123.544 25.7519Z" fill="#EBBC44"/>
<path d="M61.9538 34.3904C60.5377 34.3904 59.3193 35.2412 58.7756 36.457L58.755 36.4467C58.4884 37.1725 58.1352 37.829 57.6815 38.4057C56.6187 39.7742 55.189 40.4549 53.3957 40.4549C51.6023 40.4549 50.1552 39.7707 49.0577 38.4057C48.6767 37.9053 48.3721 37.3462 48.1265 36.7348C47.6588 35.3352 46.3469 34.3279 44.7924 34.3279C42.8501 34.3279 41.275 35.9084 41.275 37.8569C41.275 38.4784 41.4374 39.0619 41.7181 39.5693L41.7111 39.5727C41.7974 39.7534 41.8808 39.934 41.9708 40.1076C43.0682 42.1428 44.5951 43.7268 46.5579 44.8591C48.5519 45.9913 50.8441 46.561 53.4372 46.561C55.9956 46.561 58.2565 45.9947 60.2159 44.8591C62.21 43.692 63.7402 42.0736 64.803 40.0067C64.8897 39.8435 64.9622 39.6768 65.0418 39.5101L65.0385 39.5066C65.2912 39.0202 65.4364 38.4715 65.4364 37.8879C65.4402 35.9567 63.8786 34.3904 61.9538 34.3904Z" fill="#DFBC8E"/>
<path d="M64.8064 25.7519C63.7437 23.7163 62.2135 22.1501 60.2194 21.0488C58.26 19.9165 55.9818 19.3469 53.3884 19.3469C50.7956 19.3469 48.5037 19.9131 46.5096 21.0488C44.5499 22.1811 43.0197 23.7824 41.9222 25.8489C41.8633 25.9639 41.8116 26.0818 41.756 26.1998L41.7735 26.2103C41.4584 26.7384 41.275 27.3564 41.275 28.0164C41.275 29.965 42.8501 31.5452 44.7924 31.5452C46.378 31.5452 47.7212 30.4895 48.1573 29.0412C48.3964 28.4751 48.6907 27.9573 49.0542 27.5025C50.1517 26.134 51.5952 25.453 53.3922 25.453C55.1855 25.453 56.6153 26.1374 57.6782 27.5025C58.1385 28.0618 58.4953 28.7041 58.7618 29.4268H58.7862C59.3296 30.6736 60.5654 31.5452 62.0092 31.5452C63.9516 31.5452 65.5266 29.965 65.5266 28.0164C65.5266 27.3843 65.3604 26.7937 65.0696 26.2833C64.9867 26.1061 64.9 25.9255 64.8064 25.7519Z" fill="#EBBC44"/>
<path d="M61.9538 34.3904C60.5377 34.3904 59.3193 35.2412 58.7756 36.457L58.755 36.4467C58.4884 37.1725 58.1352 37.829 57.6815 38.4057C56.6187 39.7742 55.189 40.4549 53.3957 40.4549C51.6023 40.4549 50.1552 39.7707 49.0577 38.4057C48.6767 37.9053 48.3721 37.3462 48.1265 36.7348C47.6588 35.3352 46.3469 34.3279 44.7924 34.3279C42.8501 34.3279 41.275 35.9084 41.275 37.8569C41.275 38.4784 41.4374 39.0619 41.7181 39.5693L41.7111 39.5727C41.7974 39.7534 41.8808 39.934 41.9708 40.1076C43.0682 42.1428 44.5951 43.7268 46.5579 44.8591C48.5519 45.9913 50.8441 46.561 53.4372 46.561C55.9956 46.561 58.2565 45.9947 60.2159 44.8591C62.21 43.692 63.7402 42.0736 64.803 40.0067C64.8897 39.8435 64.9622 39.6768 65.0418 39.5101L65.0385 39.5066C65.2912 39.0202 65.4364 38.4715 65.4364 37.8879C65.4402 35.9567 63.8786 34.3904 61.9538 34.3904Z" fill="#EBBC44"/>
<path d="M120.691 34.3904C119.275 34.3904 118.057 35.2412 117.513 36.457L117.492 36.4467C117.226 37.1725 116.873 37.829 116.419 38.4057C115.356 39.7742 113.926 40.4549 112.133 40.4549C110.34 40.4549 108.893 39.7707 107.795 38.4057C107.414 37.9053 107.11 37.3462 106.864 36.7348C106.396 35.3352 105.084 34.3279 103.53 34.3279C101.588 34.3279 100.013 35.9084 100.013 37.8569C100.013 38.4784 100.175 39.0619 100.456 39.5693L100.449 39.5727C100.535 39.7534 100.618 39.934 100.708 40.1076C101.806 42.1428 103.333 43.7268 105.295 44.8591C107.289 45.9913 109.582 46.561 112.175 46.561C114.733 46.561 116.994 45.9947 118.953 44.8591C120.947 43.692 122.478 42.0736 123.541 40.0067C123.627 39.8435 123.7 39.6768 123.779 39.5101L123.776 39.5066C124.029 39.0202 124.174 38.4715 124.174 37.8879C124.178 35.9567 122.616 34.3904 120.691 34.3904Z" fill="#EBBC44"/>
</svg>
