<svg width="199" height="36" viewBox="0 0 199 36" fill="none" xmlns="http://www.w3.org/2000/svg">
<g clip-path="url(#clip0_212_3214)">
<path d="M184.253 36C184.253 34.8513 184.261 33.7026 184.247 32.5547C184.244 32.3018 184.314 32.2367 184.558 32.2398C184.994 32.2451 185.432 32.2819 185.869 32.1884C186.757 31.9976 187.344 31.4666 187.623 30.5953C187.961 29.5439 188.278 28.4849 188.612 27.4312C188.669 27.2504 188.654 27.0918 188.593 26.9178C186.426 20.8181 184.262 14.7175 182.098 8.61627C182.035 8.44002 181.983 8.25994 181.916 8.05534C183.218 8.05534 184.483 8.06147 185.747 8.04921C185.984 8.04691 186.001 8.20323 186.05 8.35496C187.034 11.4133 188.015 14.4723 188.999 17.5306C189.446 18.9207 189.894 20.31 190.343 21.7001C190.374 21.7951 190.412 21.887 190.469 22.0395C190.866 20.8127 191.246 19.6426 191.621 18.4717C192.701 15.0976 193.783 11.7236 194.853 8.34653C194.93 8.10131 195.045 8.04921 195.277 8.04997C196.518 8.05764 197.759 8.04691 198.999 8.04308V8.19634C198.685 9.63008 198.123 10.9834 197.663 12.3688C197.126 13.9873 196.564 15.5973 196.019 17.2134C194.648 21.2778 193.259 25.3354 191.89 29.4006C191.517 30.5095 191.176 31.6321 190.735 32.7172C190.118 34.2329 189.129 35.3456 187.536 35.8222C187.149 35.9379 186.749 35.9272 186.359 36.0008H184.253L184.253 36Z" fill="white"/>
<path d="M51.537 0C52.0283 0.178548 52.5204 0.3479 52.9327 0.699632C53.9891 1.6008 54.3187 3.14183 53.71 4.40622C53.0772 5.72196 51.6709 6.38941 50.2564 6.04687C48.9299 5.72503 47.9916 4.50278 47.9886 3.09202C47.9848 1.60463 48.9013 0.415334 50.3136 0.0712659C50.3722 0.0567062 50.4272 0.0245216 50.4836 0.0007663C50.835 0.0007663 51.1856 0.0007663 51.537 0.0007663V0Z" fill="white"/>
<path d="M164.316 0C165.124 0.267439 165.767 0.724153 166.055 1.58318C166.486 2.86826 165.815 4.25603 164.571 4.65451C163.319 5.05528 161.98 4.34799 161.607 3.08972C161.22 1.78548 161.921 0.465144 163.205 0.0773963C163.276 0.0559399 163.344 0.0260542 163.413 0C163.714 0 164.015 0 164.316 0V0Z" fill="white"/>
<path d="M0 16.4678C0.075242 16.2984 0.143712 16.126 0.226478 15.9605C0.711037 14.9888 1.78324 14.5168 2.82458 14.8141C3.79144 15.09 4.4611 16.0563 4.40617 17.0969C4.34974 18.1682 3.57324 19.0356 2.51985 19.2065C1.51613 19.369 0.509388 18.759 0.130169 17.7682C0.0910428 17.6663 0.104586 17.5368 0.00075242 17.4624C0.00075242 17.1306 0.00075242 16.7988 0.00075242 16.467L0 16.4678Z" fill="white"/>
<path d="M127.977 3.36044e-06C127.977 0.0268239 127.975 0.052878 127.975 0.0796985C127.768 0.249817 127.521 0.198475 127.288 0.199241C122.787 0.202307 118.286 0.20154 113.786 0.20154C113.298 0.20154 113.053 0.453908 113.053 0.958645C113.053 9.66304 113.053 18.3674 113.053 27.0711C113.053 27.5784 113.298 27.8323 113.789 27.8328C114.591 27.8328 115.394 27.8335 116.196 27.8328C116.79 27.832 116.794 27.8282 116.794 27.2067C116.795 23.7607 116.794 20.3146 116.794 16.8686C116.794 16.703 116.783 16.5352 116.808 16.3712C116.826 16.2532 116.818 16.1046 116.993 16.0885C116.993 19.9039 116.992 23.72 116.991 27.5355C116.991 27.8742 116.831 28.0435 116.511 28.0435C115.446 28.0435 114.38 28.0259 113.315 28.0527C112.933 28.0627 112.834 27.9539 112.835 27.5638C112.846 19.4732 112.843 11.3819 112.844 3.29126C112.844 2.19392 112.85 1.09658 112.854 -0.000762939H127.976L127.977 3.36044e-06Z" fill="white"/>
<path d="M95.1886 0.0812278C95.1834 0.0544073 95.1789 0.0268205 95.1736 0C96.4527 0 97.7318 0 99.0109 0C99.0094 0.0260542 99.0087 0.0521084 99.0072 0.0781626C98.8747 0.202303 98.7077 0.197705 98.5459 0.198472C97.5806 0.202303 96.6152 0.202303 95.6499 0.198472C95.4888 0.197705 95.3203 0.211499 95.1886 0.0819941V0.0812278Z" fill="white"/>
<path d="M80.1267 0C80.1327 0.0245216 80.1342 0.0490432 80.1312 0.0743311C79.9913 0.218395 79.8084 0.198472 79.6354 0.199238C78.7076 0.203836 77.7799 0.203069 76.8522 0.200004C76.6761 0.200004 76.4985 0.200771 76.3541 0.0712659C76.3578 0.0475106 76.3608 0.0237553 76.3646 0C77.6189 0 78.8724 0 80.1267 0V0Z" fill="white"/>
<path d="M134.442 0.0697333C134.454 0.0475106 134.455 0.0237553 134.447 0H135.275C135.266 0.0237553 135.268 0.0467443 135.279 0.0697333C135 0.251346 134.722 0.251346 134.442 0.0697333Z" fill="white"/>
<path d="M105.551 0.0682007C105.561 0.045978 105.563 0.022989 105.556 0H106.309C106.314 0.0206901 106.316 0.0413802 106.317 0.0628366C106.063 0.253645 105.808 0.247515 105.551 0.068967V0.0682007Z" fill="white"/>
<path d="M76.3541 0.0712585C77.6129 0.0720248 78.8717 0.0727911 80.1305 0.0743237C80.8279 1.71957 81.5307 3.36252 82.2214 5.01083C84.016 9.29368 85.8037 13.5796 87.5982 17.8617C87.6351 17.9498 87.6411 18.067 87.769 18.1237C88.4244 16.5329 89.0812 14.9436 89.7336 13.3528C91.5243 8.98639 93.3136 4.61848 95.1044 0.251339C95.1284 0.192334 95.16 0.13716 95.1879 0.0804541C96.461 0.0796878 97.7333 0.0781552 99.0064 0.0773889C99.0117 0.204595 99.0215 0.3318 99.0215 0.459006C99.0215 9.48449 99.0207 18.5092 99.029 27.5347C99.029 27.8657 98.9725 27.9883 98.6114 27.9791C97.5588 27.9508 96.5046 27.9523 95.452 27.9784C95.0871 27.9876 94.9749 27.9117 94.9757 27.5102C94.9915 22.0081 94.9862 16.5061 94.984 11.0041C94.984 10.8707 95.0284 10.7274 94.9147 10.555C94.5641 11.4294 94.2263 12.27 93.89 13.1121C92.3317 17.0126 90.7704 20.9123 89.2227 24.8174C89.0993 25.1285 88.9518 25.2281 88.62 25.1982C88.0346 25.1454 87.444 25.1377 86.8563 25.1469C86.5825 25.1515 86.4711 25.045 86.3695 24.8005C84.8948 21.2503 83.4095 17.7046 81.9257 14.1581C81.4321 12.9788 80.937 11.8002 80.3637 10.6278V11.0133C80.3637 16.5283 80.3607 22.0426 80.3712 27.5577C80.3712 27.8833 80.3118 27.9876 79.9687 27.9799C78.8784 27.9531 77.7867 27.96 76.6964 27.9768C76.409 27.9814 76.3179 27.9125 76.3202 27.6036C76.3345 25.5615 76.3277 23.5185 76.3277 21.4763C76.3277 14.4938 76.3277 7.5105 76.3285 0.527973C76.3285 0.376246 76.3443 0.223752 76.3533 0.0720248L76.3541 0.0712585Z" fill="white"/>
<path d="M116.994 16.0885C116.843 16.2042 116.922 16.3689 116.922 16.5069C116.916 20.1951 116.912 23.8825 116.926 27.5707C116.928 27.9194 116.829 27.9891 116.509 27.983C115.419 27.9623 114.328 27.9661 113.238 27.9814C112.968 27.9853 112.907 27.8964 112.907 27.6351C112.913 18.5621 112.913 9.48909 112.907 0.416099C112.907 0.156323 112.965 0.0704973 113.235 0.0712636C118.148 0.0804592 123.062 0.0796929 127.975 0.0804592C127.98 1.33029 127.978 2.58013 127.995 3.82996C127.999 4.1066 127.84 4.05985 127.682 4.05985C125.501 4.05985 123.321 4.05985 121.14 4.05985C119.85 4.05985 118.559 4.06982 117.268 4.05219C116.977 4.04836 116.922 4.13878 116.923 4.41542C116.934 6.90283 116.936 9.391 116.922 11.8784C116.919 12.2087 116.989 12.3052 117.329 12.3037C120.738 12.2891 124.146 12.3022 127.555 12.2853C127.926 12.2838 128.008 12.3849 127.998 12.7474C127.971 13.7037 127.972 14.6616 127.998 15.6172C128.008 15.9743 127.932 16.0846 127.556 16.0823C124.173 16.0655 120.789 16.0724 117.406 16.0731C117.268 16.0731 117.131 16.0831 116.994 16.0885Z" fill="white"/>
<path d="M145.618 10.1849C145.807 9.99101 145.939 9.86304 146.062 9.72664C148.081 7.48215 151.724 7.18482 154.23 9.00249C155.871 10.1941 156.647 11.834 156.868 13.811C156.931 14.3697 156.933 14.9298 156.932 15.4915C156.93 19.5115 156.927 23.5315 156.938 27.5515C156.939 27.8719 156.888 27.9899 156.537 27.9799C155.523 27.9515 154.506 27.9569 153.491 27.9776C153.187 27.9837 153.097 27.9163 153.099 27.5883C153.111 23.6833 153.117 19.7782 153.102 15.8731C153.096 14.4179 152.635 13.1528 151.355 12.355C149.35 11.1044 145.994 11.9259 145.662 15.3429C145.629 15.6846 145.62 16.0302 145.62 16.3743C145.617 20.1008 145.614 23.8273 145.626 27.5531C145.626 27.8726 145.573 27.9891 145.225 27.9799C144.197 27.9523 143.169 27.9615 142.141 27.9761C141.889 27.9799 141.802 27.9286 141.802 27.6481C141.81 21.2288 141.81 14.8103 141.803 8.39098C141.803 8.12737 141.866 8.04538 142.133 8.04921C143.185 8.0653 144.239 8.06453 145.292 8.04921C145.562 8.04538 145.631 8.13503 145.623 8.39634C145.606 8.9657 145.618 9.53583 145.618 10.1857V10.1849Z" fill="white"/>
<path d="M172.73 17.5782C172.73 15.5743 172.719 13.5704 172.74 11.5673C172.744 11.201 172.631 11.1152 172.3 11.1366C171.887 11.1635 171.473 11.1366 171.059 11.1458C170.87 11.1504 170.793 11.0953 170.795 10.8876C170.805 10.0324 170.806 9.17721 170.794 8.32278C170.791 8.09213 170.878 8.04538 171.081 8.05151C171.494 8.06378 171.909 8.03389 172.321 8.06224C172.64 8.0837 172.743 8.00477 172.74 7.65227C172.722 5.26601 172.739 2.87899 172.721 0.492733C172.719 0.141001 172.82 0.0743332 173.139 0.0812299C174.142 0.102686 175.145 0.100387 176.148 0.0819962C176.436 0.0766321 176.526 0.147132 176.524 0.45595C176.51 2.84221 176.527 5.22923 176.506 7.61549C176.503 8.00094 176.616 8.07833 176.965 8.06301C177.641 8.03389 178.319 8.06148 178.996 8.05075C179.207 8.04768 179.311 8.07527 179.307 8.33428C179.29 9.17644 179.29 10.0194 179.307 10.8608C179.312 11.1167 179.211 11.1497 178.999 11.1458C178.285 11.1351 177.57 11.1512 176.856 11.1366C176.606 11.1313 176.509 11.1841 176.51 11.4677C176.52 15.2072 176.512 18.9468 176.519 22.6863C176.521 23.8036 176.932 24.2028 178.027 24.2036C178.366 24.2036 178.704 24.2112 179.042 24.2005C179.223 24.1944 179.308 24.2281 179.305 24.4457C179.294 25.5431 179.3 26.6412 179.3 27.7385C179.3 27.8527 179.32 27.9753 179.141 27.9692C178.129 27.9347 177.108 28.0726 176.108 27.8328C174.042 27.3377 172.742 25.6151 172.732 23.3591C172.724 21.4319 172.731 19.5046 172.731 17.5774L172.73 17.5782Z" fill="white"/>
<path d="M107.877 17.9943C107.877 21.1844 107.872 24.3745 107.884 27.5646C107.886 27.878 107.818 27.9722 107.498 27.9653C106.446 27.9431 105.393 27.95 104.34 27.9623C104.114 27.9646 104.045 27.914 104.046 27.6711C104.054 21.2273 104.053 14.7835 104.048 8.33888C104.048 8.11512 104.085 8.03236 104.33 8.03542C105.407 8.05075 106.485 8.05305 107.564 8.03542C107.846 8.03082 107.883 8.13581 107.882 8.38639C107.874 11.5895 107.877 14.7919 107.877 17.995V17.9943Z" fill="white"/>
<path d="M136.779 18.0211C136.779 21.2112 136.775 24.4013 136.786 27.5914C136.787 27.891 136.713 27.9699 136.419 27.9646C135.366 27.9454 134.313 27.9492 133.26 27.963C133.013 27.9661 132.949 27.8948 132.949 27.645C132.956 21.2135 132.956 14.7827 132.949 8.35113C132.949 8.09442 133.023 8.03388 133.264 8.03695C134.33 8.04998 135.395 8.05304 136.46 8.03542C136.73 8.03082 136.785 8.11128 136.785 8.37412C136.776 11.5895 136.779 14.8057 136.779 18.0211H136.779Z" fill="white"/>
<path d="M165.757 18.0027C165.757 21.1675 165.751 24.3323 165.766 27.4964C165.768 27.8619 165.657 27.9309 165.329 27.9247C164.339 27.904 163.349 27.9033 162.359 27.9247C162.037 27.9316 161.936 27.8588 161.938 27.5102C161.954 24.9706 161.947 22.4311 161.947 19.8916C161.947 16.0632 161.951 12.2347 161.94 8.40707C161.94 8.09902 162.002 7.99021 162.326 7.9971C163.341 8.01933 164.357 8.01856 165.372 7.9971C165.683 7.99097 165.766 8.0699 165.765 8.39252C165.752 11.5956 165.757 14.7988 165.757 18.0011V18.0027Z" fill="white"/>
<path d="M12.8212 27.9699C10.9808 27.9699 9.48726 26.4588 9.49328 24.6051C9.4993 22.73 11.0109 21.2066 12.8551 21.2173C14.6767 21.228 16.1778 22.7721 16.1635 24.6197C16.1484 26.4879 14.6692 27.9707 12.8212 27.9699Z" fill="white"/>
<path d="M17.6051 22.7491C17.6051 21.107 18.9038 19.7774 20.511 19.7744C22.1422 19.7713 23.4416 21.1016 23.4341 22.7668C23.4266 24.4105 22.1257 25.7277 20.5132 25.7239C18.9045 25.7201 17.6051 24.3913 17.6051 22.7499V22.7491Z" fill="white"/>
<path d="M43.2957 7.97872C41.7247 7.97872 40.4704 6.70589 40.4772 5.12042C40.4839 3.53188 41.742 2.25906 43.3025 2.26136C44.8675 2.26365 46.1218 3.54108 46.1196 5.12808C46.1166 6.72275 44.8721 7.97949 43.2957 7.97872Z" fill="white"/>
<path d="M55.3743 5.31045C55.3773 3.89586 56.4969 2.76404 57.8882 2.77017C59.2643 2.7763 60.411 3.94414 60.4028 5.33114C60.3937 6.74037 59.2666 7.88675 57.8867 7.88981C56.4751 7.89288 55.3721 6.76029 55.3751 5.31122L55.3743 5.31045Z" fill="white"/>
<path d="M8.13742 22.4235C8.13968 23.8733 7.07124 24.9791 5.66422 24.9821C4.23838 24.9852 3.11728 23.8603 3.12555 22.4334C3.13383 21.0173 4.2444 19.8863 5.63412 19.8778C7.0276 19.8694 8.13516 20.9959 8.13667 22.4227L8.13742 22.4235Z" fill="white"/>
<path d="M24.2889 18.8464C24.2798 17.4793 25.3377 16.3904 26.6838 16.3797C28.0141 16.3689 29.1074 17.4655 29.1149 18.8196C29.1224 20.1667 28.0442 21.2763 26.7109 21.2939C25.3882 21.3108 24.2971 20.2096 24.2881 18.8471L24.2889 18.8464Z" fill="white"/>
<path d="M134.442 0.0697327C134.722 0.0697327 135 0.0697327 135.279 0.0697327C136.486 0.334106 137.326 1.41536 137.214 2.56174C137.087 3.85679 136.12 4.79397 134.888 4.81313C133.678 4.83152 132.673 3.90813 132.531 2.64603C132.394 1.43221 133.19 0.359394 134.442 0.070499L134.442 0.0697327Z" fill="white"/>
<path d="M105.551 0.0682032C105.806 0.0659043 106.061 0.0643717 106.317 0.0620728C107.534 0.280468 108.386 1.34946 108.299 2.54565C108.205 3.82077 107.228 4.78248 105.993 4.81237C104.794 4.84148 103.743 3.89127 103.615 2.66289C103.486 1.42302 104.297 0.334875 105.551 0.0674369V0.0682032Z" fill="white"/>
<path d="M36.9265 6.80475C38.2222 6.80628 39.2492 7.85458 39.2334 9.15959C39.2176 10.4792 38.2004 11.4937 36.8972 11.4899C35.6293 11.4861 34.6076 10.4408 34.6091 9.14809C34.6106 7.83159 35.6271 6.80322 36.9265 6.80475Z" fill="white"/>
<path d="M63.511 11.2301C63.5065 12.4662 62.5133 13.4761 61.3124 13.4662C60.0807 13.4555 59.1154 12.447 59.1236 11.1795C59.1319 9.92511 60.0898 8.96034 61.3245 8.96187C62.5727 8.9634 63.5155 9.9412 63.511 11.2301Z" fill="white"/>
<path d="M32.1486 16.3276C30.9102 16.3245 29.9478 15.3321 29.9561 14.067C29.9644 12.8363 30.947 11.8432 32.1599 11.8409C33.3879 11.8386 34.3735 12.8447 34.3698 14.0976C34.366 15.3605 33.3992 16.3314 32.1479 16.3283L32.1486 16.3276Z" fill="white"/>
<path d="M4.40617 10.7895C4.41219 11.9229 3.51907 12.8363 2.40549 12.8347C1.29567 12.8332 0.392763 11.9213 0.388249 10.7964C0.384487 9.67836 1.2904 8.75344 2.39871 8.74424C3.50176 8.73504 4.40015 9.65077 4.40617 10.7887V10.7895Z" fill="white"/>
<path d="M3.53637 6.47523C3.53261 5.39705 4.37683 4.52347 5.42796 4.51964C6.4836 4.5158 7.33534 5.37636 7.34061 6.45301C7.34587 7.53043 6.50843 8.39788 5.44978 8.41321C4.41821 8.42776 3.54014 7.53886 3.53637 6.47523Z" fill="white"/>
<path d="M63.1228 17.3007C63.116 18.3751 62.262 19.2303 61.2026 19.2257C60.1575 19.2211 59.2907 18.3291 59.302 17.2701C59.3125 16.2134 60.2064 15.3176 61.2327 15.3352C62.2868 15.3536 63.1303 16.231 63.1235 17.3007H63.1228Z" fill="white"/>
<path d="M9.68665 5.20855C8.7529 5.21008 7.99371 4.44378 7.98694 3.49203C7.97941 2.5173 8.73635 1.74564 9.69342 1.75023C10.64 1.75483 11.3864 2.50351 11.3999 3.46062C11.4135 4.41849 10.64 5.20701 9.68665 5.20855Z" fill="white"/>
<path d="M58.0582 19.8824C59.0017 19.8725 59.7609 20.6188 59.7797 21.5744C59.7986 22.5461 59.0476 23.3392 58.0988 23.3484C57.1696 23.3576 56.3901 22.5951 56.3653 21.6533C56.3404 20.7016 57.1147 19.8916 58.0582 19.8817V19.8824Z" fill="white"/>
<path d="M54.041 22.6725C54.9793 22.6748 55.7332 23.4365 55.7378 24.3875C55.743 25.35 54.9725 26.1308 54.0207 26.1278C53.0825 26.1247 52.3233 25.3515 52.3315 24.4067C52.3398 23.4105 53.0689 22.671 54.041 22.6733V22.6725Z" fill="white"/>
<path d="M14.1628 4.06983C13.3239 4.07672 12.6482 3.40928 12.6399 2.56635C12.6324 1.73031 13.305 1.02608 14.1267 1.00922C14.9355 0.992365 15.6383 1.6943 15.6488 2.52956C15.6594 3.37479 14.9957 4.06293 14.1628 4.07059V4.06983Z" fill="white"/>
<path d="M49.5852 23.8089C50.4279 23.812 51.0863 24.4833 51.0803 25.3316C51.0743 26.1937 50.4001 26.8504 49.5295 26.8443C48.7282 26.8381 48.0744 26.1508 48.0759 25.3147C48.0774 24.4657 48.7395 23.8051 49.5852 23.8082V23.8089Z" fill="white"/>
<path d="M23.2362 4.41388C23.2325 5.1365 22.6531 5.72885 21.9473 5.73192C21.2333 5.73575 20.6216 5.11275 20.6314 4.39243C20.6411 3.67594 21.231 3.07899 21.9308 3.07592C22.6554 3.07286 23.24 3.67287 23.2362 4.41312V4.41388Z" fill="white"/>
<path d="M45.3062 26.3362C44.5967 26.3285 44.0271 25.7408 44.0256 25.0151C44.0241 24.284 44.6313 23.671 45.3446 23.6848C46.0594 23.6986 46.6538 24.33 46.6327 25.0519C46.6117 25.7645 46.0127 26.3446 45.3062 26.337V26.3362Z" fill="white"/>
<path d="M18.2116 1.65061C18.967 1.66824 19.4975 2.2284 19.4862 2.997C19.4756 3.71196 18.8782 4.30124 18.1777 4.28745C17.4501 4.27366 16.8813 3.66675 16.8993 2.92497C16.9174 2.19468 17.4953 1.63299 18.2116 1.64984V1.65061Z" fill="white"/>
<path d="M25.0503 7.67142C24.3822 7.66222 23.8728 7.12811 23.8826 6.44687C23.8923 5.77636 24.4371 5.23075 25.0849 5.24302C25.7711 5.25604 26.2843 5.80165 26.2677 6.50051C26.2519 7.18405 25.735 7.68062 25.0503 7.67142Z" fill="white"/>
<path d="M41.7428 24.6756C41.0784 24.6626 40.569 24.1193 40.5855 23.4411C40.6013 22.7645 41.1348 22.2449 41.8007 22.2572C42.4891 22.2702 42.9888 22.8074 42.9714 23.517C42.9549 24.1944 42.4305 24.6886 41.7435 24.6748L41.7428 24.6756Z" fill="white"/>
<path d="M38.542 20.5154C39.1642 20.5154 39.6337 20.9882 39.6367 21.6181C39.6405 22.225 39.1409 22.7338 38.5397 22.7361C37.934 22.7392 37.4555 22.2442 37.4555 21.6143C37.4555 20.9713 37.9069 20.5146 38.542 20.5154Z" fill="white"/>
<path d="M27.7989 7.7243C28.4121 7.7174 28.8952 8.20017 28.9019 8.82624C28.908 9.44541 28.4219 9.95347 27.8192 9.95577C27.215 9.95883 26.7184 9.46227 26.7094 8.84616C26.7004 8.23389 27.1887 7.7312 27.7989 7.7243Z" fill="white"/>
</g>
<defs>
<clipPath id="clip0_212_3214">
<rect width="199" height="36" fill="white"/>
</clipPath>
</defs>
</svg>
