<svg width="179" height="38" viewBox="0 0 179 38" fill="none" xmlns="http://www.w3.org/2000/svg">
<path d="M36.8116 23.5984C34.3155 33.7769 24.1753 39.9714 14.1624 37.4331C4.15358 34.8955 -1.93944 24.5858 0.5578 14.4079C3.0527 4.2282 13.1929 -1.96689 23.2029 0.570761C33.2152 3.10841 39.3077 13.4193 36.8116 23.5984Z" fill="#F7931A"/>
<path d="M26.924 16.2954C27.2961 13.7673 25.4027 12.4082 22.8138 11.5016L23.6536 8.07688L21.6031 7.55735L20.7855 10.8918C20.2465 10.7552 19.6928 10.6264 19.1427 10.4988L19.9661 7.14233L17.9168 6.6228L17.0764 10.0463C16.6302 9.943 16.1922 9.84089 15.7671 9.73342L15.7694 9.72273L12.9416 9.00489L12.3962 11.2314C12.3962 11.2314 13.9175 11.5859 13.8854 11.6078C14.7158 11.8186 14.8659 12.3773 14.8408 12.8203L13.8842 16.7217C13.9414 16.7366 14.0156 16.758 14.0974 16.7912C14.0291 16.774 13.956 16.755 13.8807 16.7366L12.5398 22.202C12.4382 22.4585 12.1806 22.8432 11.6001 22.6971C11.6206 22.7274 10.1097 22.3189 10.1097 22.3189L9.0918 24.7052L11.7602 25.3814C12.2566 25.5079 12.743 25.6403 13.2219 25.765L12.3734 29.2289L14.4215 29.7484L15.2619 26.3213C15.8214 26.4757 16.3645 26.6182 16.896 26.7524L16.0585 30.1634L18.109 30.683L18.9575 27.2256C22.454 27.8983 25.0832 27.627 26.19 24.4119C27.0817 21.8232 26.1456 20.3299 24.3059 19.3562C25.6456 19.0421 26.6548 18.1461 26.924 16.2954ZM22.2391 22.9744C21.6054 25.5631 17.3182 24.1637 15.9282 23.8128L17.0542 19.2238C18.4442 19.5764 22.9014 20.2747 22.2391 22.9744ZM22.8733 16.258C22.2952 18.6128 18.7268 17.4164 17.5693 17.1231L18.5902 12.961C19.7477 13.2543 23.4754 13.8017 22.8733 16.258Z" fill="white"/>
<path d="M54.7642 11.4979C56.2797 11.4979 57.589 11.774 58.6893 12.316C59.7949 12.8635 60.7071 13.6009 61.4388 14.5283C62.1607 15.4605 62.698 16.55 63.0449 17.7987C63.3894 19.0509 63.5623 20.3969 63.5623 21.8379C63.5623 24.0513 63.1634 26.1425 62.3581 28.1137C61.5527 30.0879 60.46 31.8002 59.0701 33.2608C57.6813 34.7197 56.0414 35.8697 54.1504 36.7194C52.2623 37.5696 50.2094 37.9948 48.0054 37.9948C47.7204 37.9948 47.2193 37.9864 46.5115 37.9716C45.8036 37.9568 44.9901 37.8825 44.0791 37.7572C43.1622 37.6272 42.1927 37.4348 41.1689 37.1772C40.1457 36.9242 39.1739 36.5698 38.2588 36.1197L46.442 1.16264L53.7713 0.0078125L50.8413 12.4128C51.4686 12.1255 52.1005 11.9028 52.7312 11.7407C53.3625 11.581 54.04 11.4979 54.7642 11.4979ZM48.6163 32.0835C49.72 32.0835 50.7602 31.8074 51.7372 31.2653C52.7172 30.7226 53.5628 29.9899 54.2713 29.0774C54.9797 28.1606 55.5403 27.1281 55.9491 25.9745C56.3579 24.8208 56.5647 23.6173 56.5647 22.3651C56.5647 20.8267 56.3118 19.6268 55.8078 18.7593C55.3038 17.8954 54.3711 17.4608 53.0168 17.4608C52.5729 17.4608 52.0012 17.5469 51.2922 17.7007C50.5809 17.864 49.9443 18.203 49.3737 18.713L46.2539 31.8869C46.442 31.9208 46.6084 31.9528 46.7503 31.9831C46.8893 32.0158 47.0429 32.0389 47.1959 32.055C47.3577 32.0734 47.5428 32.0829 47.7665 32.0829C47.9902 32.0829 48.2699 32.0835 48.6163 32.0835Z" fill="white"/>
<path d="M71.1632 37.3256H64.1626L70.0746 12.034H77.123L71.1632 37.3256ZM74.5697 8.9525C73.5927 8.9525 72.7067 8.65682 71.9206 8.06427C71.1281 7.47528 70.7357 6.56864 70.7357 5.34672C70.7357 4.6746 70.87 4.04404 71.1363 3.44911C71.4067 2.85537 71.76 2.34417 72.2027 1.90955C72.6448 1.4785 73.157 1.13412 73.7387 0.874655C74.3238 0.619347 74.9464 0.491699 75.6098 0.491699C76.5863 0.491699 77.4676 0.787383 78.2566 1.37994C79.0427 1.97546 79.438 2.8821 79.438 4.09749C79.438 4.77197 79.3043 5.4049 79.0357 5.99864C78.7688 6.59238 78.4154 7.10358 77.9728 7.5382C77.5342 7.96985 77.0173 8.31304 76.4368 8.57013C75.851 8.82959 75.2308 8.9525 74.5697 8.9525Z" fill="white"/>
<path d="M83.2583 5.73271L90.5906 4.57788L88.7901 12.0329H96.6427L95.2247 17.8979H87.4194L85.3403 26.7446C85.1487 27.482 85.0401 28.1708 85.0098 28.8108C84.9753 29.4538 85.0553 30.006 85.2445 30.4709C85.4326 30.937 85.7707 31.2962 86.2613 31.5503C86.7495 31.8086 87.4486 31.9386 88.3655 31.9386C89.1206 31.9386 89.8565 31.8656 90.5678 31.7207C91.2751 31.5782 91.9916 31.3799 92.717 31.1205L93.2391 36.6043C92.293 36.9569 91.2686 37.2603 90.1648 37.5157C89.0593 37.7745 87.7505 37.8992 86.2379 37.8992C84.0631 37.8992 82.377 37.5709 81.1757 36.9172C79.9762 36.2587 79.1282 35.3592 78.6207 34.2204C78.1202 33.0858 77.8965 31.7777 77.959 30.3041C78.0238 28.8269 78.2428 27.2742 78.6207 25.6391L83.2583 5.73271Z" fill="white"/>
<path d="M96.334 27.2263C96.334 25.0478 96.6809 22.9935 97.3741 21.0704C98.0662 19.1455 99.0631 17.4622 100.357 16.0176C101.646 14.5802 103.216 13.4414 105.064 12.6054C106.904 11.7742 108.964 11.355 111.234 11.355C112.655 11.355 113.924 11.4915 115.041 11.7653C116.162 12.0414 117.176 12.3982 118.094 12.8459L115.679 18.427C115.049 18.167 114.394 17.9378 113.717 17.73C113.04 17.518 112.213 17.4159 111.234 17.4159C108.898 17.4159 107.051 18.2347 105.676 19.8668C104.306 21.5002 103.617 23.6988 103.617 26.4568C103.617 28.0913 103.964 29.413 104.66 30.4242C105.352 31.4353 106.632 31.9382 108.49 31.9382C109.407 31.9382 110.291 31.8408 111.139 31.6508C111.993 31.4585 112.746 31.2162 113.411 30.93L113.933 36.6513C113.048 37.0004 112.071 37.3157 111 37.5918C109.927 37.8584 108.649 37.9967 107.167 37.9967C105.212 37.9967 103.556 37.7058 102.202 37.1328C100.847 36.551 99.7271 35.7785 98.8452 34.8C97.9587 33.8192 97.3221 32.6738 96.9285 31.3593C96.5349 30.0459 96.334 28.6661 96.334 27.2263Z" fill="white"/>
<path d="M127.433 37.9967C125.762 37.9967 124.311 37.7378 123.08 37.2254C121.852 36.713 120.835 35.994 120.031 35.0619C119.226 34.1344 118.623 33.0354 118.21 31.769C117.797 30.5031 117.599 29.1013 117.599 27.5653C117.599 25.6386 117.903 23.7125 118.518 21.7918C119.13 19.8668 120.038 18.1373 121.24 16.6001C122.433 15.0605 123.904 13.8018 125.636 12.8203C127.366 11.8454 129.357 11.355 131.592 11.355C133.233 11.355 134.676 11.6144 135.924 12.1268C137.167 12.638 138.19 13.363 138.999 14.2904C139.799 15.2226 140.407 16.3169 140.815 17.5851C141.227 18.8486 141.43 20.254 141.43 21.7912C141.43 23.7119 141.13 25.638 140.535 27.5647C139.938 29.4819 139.054 31.2156 137.885 32.7564C136.72 34.2936 135.262 35.5517 133.511 36.529C131.763 37.5063 129.735 37.9967 127.433 37.9967ZM130.932 17.4165C129.894 17.4165 128.976 17.7228 128.191 18.3279C127.402 18.94 126.74 19.7095 126.206 20.6375C125.667 21.5697 125.267 22.5862 124.996 23.6911C124.728 24.7985 124.597 25.8452 124.597 26.8397C124.597 28.4446 124.851 29.6945 125.352 30.594C125.859 31.4887 126.771 31.9388 128.096 31.9388C129.138 31.9388 130.05 31.6348 130.841 31.0232C131.624 30.4158 132.287 29.6458 132.825 28.716C133.361 27.7885 133.765 26.7691 134.035 25.6624C134.3 24.5586 134.435 23.5059 134.435 22.5131C134.435 20.9124 134.181 19.6596 133.676 18.7613C133.171 17.8665 132.256 17.4165 130.932 17.4165Z" fill="white"/>
<path d="M149.059 37.3256H142.053L147.965 12.034H155.017L149.059 37.3256ZM152.46 8.9525C151.484 8.9525 150.599 8.65682 149.814 8.06427C149.025 7.47528 148.629 6.56864 148.629 5.34672C148.629 4.6746 148.765 4.04404 149.032 3.44911C149.299 2.85537 149.655 2.34417 150.097 1.90955C150.537 1.4785 151.054 1.13412 151.635 0.874655C152.216 0.619347 152.839 0.491699 153.5 0.491699C154.479 0.491699 155.363 0.787383 156.15 1.37994C156.938 1.97546 157.336 2.8821 157.336 4.09749C157.336 4.77197 157.194 5.4049 156.93 5.99864C156.665 6.59238 156.31 7.10358 155.869 7.5382C155.425 7.96985 154.914 8.31304 154.333 8.57013C153.746 8.82959 153.125 8.9525 152.46 8.9525Z" fill="white"/>
<path d="M160.062 13.1843C160.593 13.0264 161.187 12.8364 161.832 12.6298C162.48 12.4231 163.203 12.2308 164.011 12.0574C164.811 11.8787 165.713 11.7338 166.705 11.6216C167.698 11.507 168.828 11.4512 170.085 11.4512C173.777 11.4512 176.322 12.5443 177.727 14.7239C179.131 16.9035 179.374 19.8865 178.463 23.6674L175.243 37.3234H168.196L171.317 23.9548C171.507 23.12 171.657 22.3131 171.767 21.5246C171.879 20.7432 171.872 20.0545 171.742 19.4584C171.618 18.8694 171.324 18.3873 170.869 18.0138C170.407 17.6463 169.71 17.4616 168.763 17.4616C167.85 17.4616 166.922 17.5614 165.974 17.7537L161.385 37.3228H154.335L160.062 13.1843Z" fill="white"/>
</svg>
