<svg width="206" height="49" viewBox="0 0 206 49" fill="none" xmlns="http://www.w3.org/2000/svg">
<path d="M47.9743 40.1637H39.1841L44.6822 7.38602H53.4718L47.9743 40.1637Z" fill="white"/>
<path d="M80.3664 7.93106C78.598 7.27259 75.7931 6.54556 72.3249 6.54556C63.4711 6.54556 57.2363 10.9768 57.198 17.312C57.1245 21.9862 61.662 24.5823 65.0556 26.1408C68.5243 27.7334 69.7034 28.7728 69.7034 30.1924C69.6681 32.3725 66.9005 33.3775 64.3193 33.3775C60.7398 33.3775 58.8218 32.8594 55.9071 31.6464L54.7265 31.1265L53.4719 38.4317C55.5747 39.3308 59.4489 40.1287 63.4711 40.1637C72.8785 40.1637 79.003 35.8011 79.0755 29.0498C79.1113 25.3452 76.7154 22.5066 71.5498 20.187C68.414 18.698 66.4936 17.6939 66.4936 16.1704C66.5304 14.7854 68.1179 13.3667 71.6577 13.3667C74.5724 13.2973 76.7139 13.9548 78.3362 14.6128L79.1471 14.9584L80.3664 7.93106Z" fill="white"/>
<path fill-rule="evenodd" clip-rule="evenodd" d="M96.4617 7.44887H103.393L110.623 39.8951H102.325C102.325 39.8951 101.513 36.1671 101.256 35.0279H89.7508C89.418 35.8904 87.87 39.8951 87.87 39.8951H78.4673L91.778 10.141C92.7003 8.03519 94.3242 7.44887 96.4617 7.44887ZM95.9097 19.3226C95.9097 19.3226 93.0699 26.5369 92.3319 28.4009H99.7804C99.4119 26.7786 97.7149 19.012 97.7149 19.012L97.0887 16.2162C96.825 16.9361 96.4436 17.9259 96.1863 18.5935C96.012 19.046 95.8946 19.3506 95.9097 19.3226Z" fill="white"/>
<path fill-rule="evenodd" clip-rule="evenodd" d="M0.1475 7.44887H14.5652C16.5195 7.51723 18.1052 8.104 18.6212 10.1763L21.7543 25.0828C21.7547 25.0842 21.7551 25.0857 21.7556 25.0871L22.7146 29.5744L31.4906 7.44887H40.9663L26.8808 39.8611H17.4046L9.4175 11.6679C6.66168 10.1595 3.5165 8.94635 0 8.10446L0.1475 7.44887Z" fill="white"/>
<path d="M178.289 5.1696H157.993V43.211H178.289V5.1696Z" fill="#FF5F00"/>
<path d="M159.293 24.1935C159.293 31.9103 162.758 38.7843 168.153 43.2142C164.207 46.4535 159.228 48.3869 153.817 48.3869C141.007 48.3869 130.623 37.5553 130.623 24.1935C130.623 10.8316 141.007 0 153.817 0C159.228 0 164.207 1.93345 168.153 5.17278C162.758 9.60263 159.293 16.4766 159.293 24.1935Z" fill="#EB001B"/>
<path d="M205.662 24.1935C205.662 10.8316 195.278 0 182.467 0C177.056 0 172.077 1.93345 168.131 5.17278C173.527 9.60263 176.991 16.4766 176.991 24.1935C176.991 31.9103 173.527 38.7843 168.131 43.2142C172.077 46.4535 177.056 48.3869 182.467 48.3869C195.278 48.3869 205.662 37.5553 205.662 24.1935Z" fill="#F79E1B"/>
</svg>
