<svg width="152" height="36" viewBox="0 0 152 36" fill="none" xmlns="http://www.w3.org/2000/svg">
<g clip-path="url(#clip0_212_3259)">
<path d="M118.08 36C116.046 34.4497 115.567 31.8686 117.385 29.4522C119.125 27.1353 119.094 25.2126 117.691 22.7528C115.869 19.5612 114.41 16.1573 112.942 12.7795C112.113 10.874 112.787 9.0249 114.203 8.5009C116.288 7.72573 118.296 8.56153 119.176 10.6272C120.29 13.2385 121.352 15.8672 122.617 18.9246C123.645 16.5558 124.499 14.568 125.367 12.5846C125.812 11.5669 126.196 10.5103 126.753 9.55756C127.543 8.21075 129.762 7.68675 131.208 8.63081C132.365 9.38433 132.896 10.4323 132.413 12.0476C131.463 15.2089 129.676 17.9675 128.398 20.9686C126.658 25.0567 124.642 29.0321 122.811 33.0812C122.242 34.3457 121.279 35.1902 120.23 35.9957H118.084L118.08 36Z" fill="#83C451"/>
<path d="M152 25.8362C150.973 27.4818 149.423 27.9928 147.54 27.9668C143.819 27.9192 140.097 27.9192 136.38 27.9668C134.943 27.9884 133.488 27.8325 132.875 26.4987C132.193 25.022 133.393 23.8528 134.278 22.8048C136.674 19.9726 139.152 17.2097 141.988 13.9704C139.726 13.9704 137.995 13.9964 136.268 13.9661C134.114 13.9271 133.104 13.0133 133.112 11.1902C133.121 9.38866 134.14 8.49223 136.333 8.47491C140.197 8.44893 144.061 8.47058 147.925 8.46625C149.103 8.46625 150.493 8.31035 151.085 9.48393C151.784 10.874 150.955 12.1126 150.005 13.1996C147.428 16.1487 144.864 19.1108 141.967 22.4453C144.41 22.4453 146.435 22.5233 148.451 22.4193C150.018 22.3414 151.154 22.8914 152.004 24.1386V25.8318L152 25.8362Z" fill="#83C451"/>
<path d="M50.2349 9.79141C44.5276 4.66402 37.6978 2.69794 30.1082 2.50307C22.8682 2.31685 16.0557 3.53807 9.99432 7.61747C6.63554 9.87802 4.01931 12.8488 3.52284 16.9802C3.17314 19.8903 4.45967 22.493 6.18223 24.8791C2.97887 23.4457 1.35128 20.7911 0.440354 17.5864C0.332424 17.2097 0.543967 16.7203 0 16.5211V14.4035C0.280618 9.39733 3.50125 6.48286 7.5292 4.17467C12.1875 1.51137 17.1825 0.0606279 22.6135 0.203537C23.369 0.225189 24.1763 0.446048 24.9016 0H28.3381C30.868 0.788163 33.5447 0.558643 36.1263 1.21689C41.7473 2.65464 46.928 4.73331 50.7185 9.31505C50.7746 9.69181 50.6062 9.84338 50.2306 9.79141H50.2349Z" fill="#83C451"/>
<path d="M39.2088 8.0462C40.6853 8.0462 42.1445 8.02888 43.5994 8.44894C45.7019 9.05522 46.8244 10.6619 46.3581 12.6669C46.0084 14.161 44.247 14.8322 42.1877 14.2562C41.7905 14.1436 41.3976 14.018 41.0005 13.8968C38.5094 13.1173 36.9207 13.6586 35.863 15.6463C34.693 17.8376 35.0686 20.3363 36.7955 21.6658C38.2849 22.8091 39.9687 22.5536 41.648 22.2461C42.4985 22.0902 43.2972 21.5532 44.1952 21.8087C45.1234 22.0729 46.2243 22.2505 46.3452 23.4717C46.4617 24.6496 46.5308 25.8232 45.3306 26.6763C42.8094 28.4691 39.8953 28.7766 37.0675 28.3046C28.6317 26.9015 26.5681 18.9159 29.5297 13.0307C31.1702 9.76543 34.6887 8.0462 39.2088 8.05053V8.0462Z" fill="white"/>
<path d="M85.3036 2.87983C81.0986 1.53303 76.8332 2.1956 72.6024 2.24324C71.1043 2.26056 69.8869 3.50776 69.9559 5.46518C70.0682 8.63516 69.9861 11.8138 69.9861 14.9881C69.9861 18.3053 70.0077 21.6225 69.9775 24.9354C69.9602 26.8842 71.0698 28.0751 72.8269 28.2223C74.4026 28.3566 75.9223 27.8932 76.5094 25.8968C76.9671 24.3465 76.8246 22.8394 76.8289 21.3194C76.8289 20.2064 77.1829 19.834 78.3054 19.8816C80.0754 19.9553 81.8239 19.7387 83.5896 19.5352C87.7903 19.0458 90.5533 16.1097 90.9764 11.7662C91.3433 8.01588 89.5215 4.22664 85.3079 2.8755L85.3036 2.87983ZM79.2379 13.9747C76.4274 13.8881 77.0059 14.5031 76.8116 10.5666C76.7167 8.63082 77.1138 7.834 79.294 7.99423C82.2168 8.20643 83.2918 8.77373 83.2961 10.7961C83.3004 13.2342 82.3506 13.9791 79.2379 13.9791V13.9747Z" fill="#83C451"/>
<path d="M112.083 24.4331C112.023 22.3934 112.066 20.3493 112.066 18.3053C112.066 16.1227 112.027 13.9401 112.079 11.7575C112.109 10.3847 111.733 9.1808 110.481 8.57019C109.173 7.92927 107.714 8.00722 106.613 9.03356C105.918 9.67881 105.4 9.51858 104.817 9.11584C102.723 7.66077 100.448 7.7777 98.1559 8.4013C92.1852 10.0253 90.2338 14.9881 91.1059 20.6741C92.0686 26.9751 99.382 30.314 104.873 27.1483C105.603 26.7283 105.94 26.7412 106.466 27.2869C107.645 28.5124 109.122 28.5168 110.503 27.8412C111.854 27.183 112.126 25.8621 112.087 24.4331H112.083ZM101.739 22.4453C99.4726 22.441 97.871 20.6265 97.9012 18.0974C97.9314 15.4125 99.2222 13.9661 101.575 13.9791C104.032 13.9877 105.21 15.3259 105.197 18.0844C105.189 20.6958 103.794 22.454 101.739 22.4453Z" fill="#83C451"/>
<path d="M24.7289 19.912C26.1104 19.9206 27.4919 19.5395 27.7898 18.2274C28.0791 16.9412 28.1784 15.4991 27.5437 14.1263C25.2599 9.19813 21.1672 7.5785 16.0384 8.07218C11.8507 8.47493 9.04021 10.2981 7.37377 14.7499C6.0268 18.3486 6.9291 23.0083 10.6117 26.0657C14.6224 29.3959 21.8364 28.6814 25.4413 26.6373C26.1622 26.2302 26.7364 25.6196 27.1163 24.8012C28.1784 22.5146 27.2458 20.908 24.7721 21.2284C23.0797 21.4493 21.4522 22.1292 19.7987 22.6272C17.0443 23.4587 14.8209 22.4367 13.992 19.9076C17.5753 19.9076 21.15 19.8903 24.7203 19.9163L24.7289 19.912ZM13.9532 15.6507C14.2209 14.0397 15.2829 13.2992 16.7162 13.1563C18.6762 12.9571 20.5585 13.1216 21.3226 15.6507H13.9575H13.9532Z" fill="white"/>
<path d="M61.1316 8.50524C57.6174 7.47456 54.0902 7.78636 50.7185 9.31505C50.5544 9.47528 50.3947 9.63118 50.235 9.79142C49.8637 10.2071 49.5269 10.6575 49.1211 11.03C45.9955 13.8838 45.7623 17.5518 46.6992 21.1981C47.9598 26.1263 51.8064 28.3566 57.9541 28.3782C63.2427 28.3955 67.1109 24.6236 67.806 20.4663C68.7557 14.7759 66.0402 9.93432 61.1402 8.50091L61.1316 8.50524ZM57.0993 22.8437C55.2256 22.8308 53.2268 20.4013 53.2397 18.1451C53.2527 15.681 55.0098 13.5807 57.0777 13.5547C59.2579 13.5287 60.9891 15.642 60.9718 18.301C60.9546 20.7477 59.1586 22.8567 57.1036 22.8437H57.0993Z" fill="white"/>
</g>
<defs>
<clipPath id="clip0_212_3259">
<rect width="152" height="36" fill="white"/>
</clipPath>
</defs>
</svg>
