<svg width="177" height="41" viewBox="0 0 177 41" fill="none" xmlns="http://www.w3.org/2000/svg">
<path d="M0 40.3502V7.0598C0 4.04683 2.36 1.86095 5.546 1.86095C8.732 1.86095 10.5905 3.10158 12.0065 5.8487L20.355 22.4791H20.473V2.48127H29.8245V35.4467C29.8245 38.9027 27.2285 40.9705 24.8685 40.9705C22.4495 40.9705 20.6795 39.848 18.2015 35.0331L9.499 18.1664H9.381V40.3206H0V40.3502ZM46.8165 29.9525L43.306 24.3401L50.8285 19.3184C49.442 18.4323 48.3505 18.3141 47.2885 18.3141C43.5125 18.3141 41.4475 22.2428 41.4475 25.6102C41.4475 29.1254 43.9255 32.7882 47.6425 32.7882C51.094 32.7882 54.457 29.6866 55.8435 26.4078L62.422 29.8638C59.7965 36.3033 53.926 40.9705 46.9935 40.9705C39.3235 40.9705 32.5975 34.2356 32.5975 26.0829C32.5975 17.9006 39.294 11.1952 46.9935 11.1952C53.4245 11.1952 57.643 14.7104 60.652 20.2637L46.8165 29.9525ZM71.272 26.0829C71.272 22.804 73.632 20.0569 76.8475 20.0569C80.063 20.0569 82.423 22.804 82.423 26.0829C82.423 29.3617 80.063 32.1088 76.8475 32.1088C73.632 32.1088 71.272 29.3617 71.272 26.0829ZM62.422 26.0829C62.422 34.2651 69.148 40.9705 76.8475 40.9705C84.547 40.9705 91.273 34.2356 91.273 26.0829C91.273 17.9006 84.547 11.1952 76.8475 11.1952C69.148 11.1952 62.422 17.9006 62.422 26.0829ZM93.161 32.227H101.863C102.925 32.227 103.456 31.6952 103.456 30.9568C103.456 28.2983 93.456 29.3026 93.456 20.0274C93.456 14.7399 97.9695 12.0814 102.276 12.0814H111.067V19.5548H103.987C102.925 19.5548 102.129 20.116 102.129 20.884C102.129 23.129 112.69 23.6902 112.69 31.2226C112.69 36.9236 109.179 40.0252 103.25 40.0252H93.1315V32.227H93.161ZM124.431 28.2392C124.431 30.6614 125.64 32.1679 127.617 32.1679C129.593 32.1679 130.803 30.6614 130.803 28.2392V12.111H139.742V28.2392C139.742 35.5353 135.523 41 127.617 41C119.74 41 115.492 35.5648 115.492 28.2392V12.111H124.431V28.2392ZM150.361 16.7781H150.479C151.837 12.8199 154.432 12.111 158.356 12.111V20.5C152.102 20.7363 151.542 22.0951 151.542 26.9395V40.0548H142.514V12.111H150.361V16.7781ZM160.244 40.0548V10.0728C160.244 4.28314 164.728 0 171.808 0H177V8.35951H172.634C170.274 8.35951 169.684 9.68876 169.684 12.0223H175.171V20.3818H169.684V40.0548H160.244Z" fill="#FF3399"/>
</svg>
