<svg width="184" height="56" viewBox="0 0 184 56" fill="none" xmlns="http://www.w3.org/2000/svg">
<path d="M163.438 16.4418C166.864 12.1053 171.428 11.402 176.422 12.3171C180.648 13.091 183.153 15.8499 183.749 20.0723C183.907 21.1857 183.984 22.3044 183.981 23.4313C183.965 29.4161 183.946 35.4009 184 41.3856C184.011 42.4256 183.711 42.6972 182.712 42.6293C181.405 42.5424 180.081 42.5424 178.774 42.6293C177.737 42.6972 177.405 42.4229 177.421 41.3286C177.486 36.5142 177.451 31.6998 177.451 26.8853C177.451 25.8942 177.454 24.9058 177.451 23.9147C177.435 19.8958 175.912 17.7588 172.727 17.2863C168.634 16.6781 165.521 18.5599 164.424 22.28C163.844 24.2487 163.792 26.2716 163.776 28.2892C163.735 32.699 163.738 37.1089 163.784 41.5187C163.795 42.4202 163.52 42.6673 162.643 42.6293C161.151 42.5614 159.656 42.5804 158.161 42.6239C157.499 42.6429 157.322 42.4175 157.325 41.7794C157.341 32.3297 157.341 22.8801 157.325 13.4304C157.325 12.7625 157.472 12.3877 158.218 12.4936C158.351 12.5126 158.49 12.4936 158.624 12.4936C159.841 12.5262 161.301 12.1651 162.207 12.7081C163.076 13.2295 162.853 14.8316 163.182 15.9368C163.228 16.0943 163.332 16.2327 163.438 16.4391V16.4418Z" fill="white"/>
<path d="M89.6214 12.4936C89.6786 13.1399 89.281 13.4332 89.0387 13.7862C86.2012 17.9027 83.3747 22.0274 80.4882 26.1087C79.911 26.9233 79.8483 27.4773 80.461 28.3326C83.5517 32.6556 86.5634 37.0355 89.6023 41.3992C89.8283 41.7224 90.038 42.0564 90.3975 42.5994C87.9195 42.5994 85.643 42.6049 83.3638 42.5967C82.7892 42.5967 82.6858 42.0509 82.4516 41.7033C80.1996 38.3362 77.9694 34.9528 75.6412 31.4391C73.4927 34.6786 71.3469 37.785 69.3482 40.9838C68.6021 42.1758 67.8424 42.7814 66.3528 42.6456C64.6155 42.4854 62.851 42.6076 60.8604 42.6076C62.9408 39.5962 64.8987 36.7613 66.862 33.9264C68.2209 31.9632 69.5497 29.9782 70.9603 28.053C71.4177 27.4284 71.3769 27.0401 70.9466 26.4237C68.0003 22.2175 65.103 17.9788 62.1893 13.7481C61.9633 13.4196 61.7509 13.0856 61.3642 12.4991C63.8503 12.4991 66.1187 12.4936 68.3897 12.5018C68.9506 12.5018 69.0841 13.0123 69.3237 13.3761C71.4041 16.5287 73.4791 19.684 75.6358 22.9615C77.7652 19.7383 79.8374 16.6482 81.8498 13.5228C82.3427 12.757 82.8845 12.4339 83.8186 12.4692C85.7492 12.5452 87.6853 12.4909 89.6187 12.4909L89.6214 12.4936Z" fill="white"/>
<path d="M11.6712 30.1167C11.6712 33.94 11.644 37.7633 11.693 41.5866C11.7039 42.4284 11.4752 42.6673 10.6392 42.6266C9.19323 42.556 7.73911 42.5397 6.29589 42.6293C5.30742 42.6918 5.12225 42.3442 5.1277 41.4291C5.16582 33.8721 5.1277 26.3151 5.17127 18.7581C5.17671 17.7452 4.98065 17.27 3.8642 17.4221C3.19705 17.5117 2.49178 17.528 1.83552 17.4112C1.26367 17.3108 0.397741 17.957 0.144497 16.8872C-0.22584 15.3367 0.125435 14.2478 1.29091 13.9545C4.04664 13.2594 5.2339 11.9967 5.33193 8.77351C5.5416 1.67541 10.1272 0 15.7504 0C17.5966 0 19.4347 0.32585 21.2264 0.844494C21.8881 1.03729 22.1877 1.28168 21.8037 1.95238C21.7602 2.02841 21.7574 2.12617 21.7275 2.21035C21.3217 3.35082 21.1992 4.75469 20.4368 5.56117C19.5381 6.51156 18.2256 5.37109 17.0683 5.30592C13.2669 5.0914 11.6957 6.47355 11.6712 10.2561C11.6712 10.6607 11.7175 11.0735 11.6603 11.4699C11.5351 12.3388 11.9272 12.5289 12.7305 12.5045C14.5386 12.4502 16.3522 12.5099 18.1603 12.4773C18.7947 12.4665 19.0507 12.643 19.0208 13.3082C18.9717 14.3863 18.9663 15.4697 19.0208 16.545C19.0589 17.2728 18.7866 17.4628 18.0867 17.4465C16.3685 17.4031 14.6448 17.49 12.9293 17.4112C11.949 17.3651 11.6195 17.585 11.6385 18.6413C11.7121 22.4646 11.6685 26.2879 11.6685 30.1112L11.6712 30.1167Z" fill="white"/>
<path d="M31.1981 21.4192C31.1981 28.0367 31.1791 34.6541 31.2199 41.2716C31.2253 42.2682 31.062 42.7271 29.9156 42.6375C28.475 42.5261 27.0182 42.5723 25.5695 42.6266C24.8479 42.6537 24.66 42.4148 24.66 41.7142C24.6791 28.2104 24.6791 14.704 24.66 1.20021C24.66 0.412743 24.9187 0.200941 25.673 0.228095C27.1217 0.279688 28.5758 0.304126 30.019 0.222664C30.9939 0.168356 31.2226 0.505067 31.2172 1.43645C31.1791 8.09737 31.1954 14.761 31.1954 21.4246L31.1981 21.4192Z" fill="white"/>
<path d="M148.135 27.4827C148.135 22.9344 148.181 18.3888 148.102 13.8432C148.083 12.6756 148.437 12.3959 149.537 12.4692C150.934 12.5642 152.344 12.5262 153.747 12.48C154.449 12.4583 154.673 12.6756 154.67 13.387C154.648 22.8421 154.645 32.2944 154.673 41.7495C154.673 42.5071 154.395 42.6374 153.728 42.6184C152.279 42.5777 150.825 42.5397 149.382 42.6293C148.385 42.689 148.091 42.4311 148.105 41.3938C148.17 36.7586 148.132 32.1206 148.132 27.4827H148.135Z" fill="white"/>
<path d="M151.334 8.07293C149.009 8.05935 147.685 6.73694 147.734 4.47772C147.783 2.21035 149.112 0.955826 151.457 0.963972C153.752 0.972118 155.07 2.3081 155.038 4.59991C155.005 6.89444 153.733 8.08922 151.334 8.07564V8.07293Z" fill="white"/>
<path d="M145.15 26.0734C145.014 22.8421 144.355 19.7737 142.68 16.936C138.882 10.5087 128.534 10.4299 124.621 15.8526C124.458 16.078 124.37 16.4554 123.902 16.3441C123.439 15.1466 123.752 13.4549 122.824 12.7244C121.879 11.9804 120.286 12.6212 118.992 12.4746C117.895 12.3497 117.661 12.776 117.669 13.8079C117.71 18.7119 117.666 23.616 117.653 28.52C116.936 31.0725 117.244 33.6549 117.443 36.2345C117.454 36.373 117.582 36.4599 117.666 36.5658C117.674 42.6402 117.704 48.7146 117.672 54.7889C117.666 55.7122 117.881 56.0516 118.856 55.9919C120.256 55.9077 121.664 55.9348 123.066 55.9837C123.88 56.0136 124.256 55.8751 124.242 54.9111C124.182 51.0417 124.215 47.1722 124.218 43.3027C124.218 41.9342 123.823 40.5846 124.174 39.0422C124.406 39.1318 124.419 39.4034 124.564 39.5527C130.495 45.7792 140.491 43.93 143.742 36.001C145.049 32.8158 145.294 29.4704 145.153 26.0707L145.15 26.0734ZM136.916 34.8252C135.72 37.2854 133.438 38.0701 130.77 37.861C128.104 37.6519 126.135 36.4897 125.163 33.9128C124.354 31.7704 124.202 29.5383 124.21 26.9261C124.169 25.343 124.291 23.4259 124.89 21.5577C125.792 18.7581 127.84 17.4927 130.663 17.2592C133.482 17.0257 135.916 17.8729 137.103 20.5095C139.241 25.2534 139.197 30.1275 136.916 34.8252Z" fill="white"/>
<path d="M117.647 28.5254C116.847 29.1798 116.062 29.856 115.243 30.4832C111.558 33.3046 107.705 35.7837 102.913 36.2725C101.578 36.4083 100.421 36.0607 99.5061 35.0207C98.3679 33.7255 98.376 33.7064 100.043 33.1118C105.214 31.2626 109.241 28.1236 111.297 22.9154C113.132 18.272 110.358 13.4739 105.44 12.5968C100.767 11.7632 96.4508 13.8812 93.7577 18.4187C91.2852 22.5841 90.0979 27.0863 90.3593 31.9414C90.6562 37.4809 93.8394 41.7196 98.7055 42.9769C102.183 43.8757 105.521 43.205 108.784 41.9477C112.068 40.6851 114.845 38.5942 117.661 36.5685C117.655 33.8884 117.653 31.2055 117.647 28.5254ZM97.777 27.2655C98.0928 24.8515 98.8635 22.5787 100.149 20.4987C100.601 19.7682 101.295 19.2061 102.109 18.8993C103.073 18.5381 104.184 18.0847 105.048 18.8803C106.033 19.7899 106.357 21.1178 105.807 22.3479C104.432 25.419 102.055 27.4148 98.76 28.3001C97.7552 28.5689 97.7388 27.9769 97.777 27.2655Z" fill="#BC202E"/>
<path d="M60.3948 27.4881C60.294 26.554 60.3512 25.6009 60.3403 24.656C60.2423 17.4737 55.6131 12.2574 48.0648 11.9451C41.8153 11.6871 36.519 14.9647 34.5638 20.8571C33.2867 24.7048 33.1696 28.6585 34.0546 32.5795C35.0703 37.0681 37.6599 40.4651 42.0985 42.0455C47.4766 43.9571 52.8601 43.4765 58.1455 41.4752C58.7255 41.2553 58.9652 40.9077 58.9407 40.2615C58.8889 38.8684 58.9243 37.4727 58.9243 35.8571C56.4327 36.8645 54.0392 37.6139 51.5121 37.9289C44.9196 38.7544 41.2217 36.2644 40.2877 30.3692C40.1107 29.245 40.3585 28.9165 41.5512 28.93C47.3486 28.9925 53.146 28.9165 58.9407 28.9925C60.1878 29.0088 60.5146 28.6368 60.3921 27.4881H60.3948ZM53.1923 24.2758C51.1527 24.2894 49.1159 24.2812 47.0763 24.284C45.1293 24.284 43.1796 24.2704 41.2326 24.2921C40.6417 24.2975 40.3667 24.2432 40.432 23.4938C40.8432 18.7934 44.9877 15.9015 49.4998 17.1886C52.7893 18.1281 53.7777 21.001 53.9847 23.7191C54.0392 24.4306 53.5544 24.2731 53.1923 24.2758Z" fill="white"/>
</svg>
